<svg xmlns="http://www.w3.org/2000/svg" version="1.1" xmlns:xlink="http://www.w3.org/1999/xlink" xmlns:svgjs="http://svgjs.com/svgjs" width="200" height="200"><svg width="200" height="200" viewBox="0 0 200 200" fill="none" xmlns="http://www.w3.org/2000/svg">
<g clip-path="url(#clip0_103_71)">
<path fill-rule="evenodd" clip-rule="evenodd" d="M63.9531 153.17C64.5614 155.025 65.2503 156.842 66.0198 158.62C69.6931 167.107 74.8231 174.453 81.4098 180.66C88.1231 186.867 95.9764 191.68 104.97 195.1C114.09 198.393 123.97 200.04 134.61 200.04C147.656 200.04 159.183 197.76 169.19 193.2C179.323 188.513 187.683 181.927 194.27 173.44L165.96 148.17C162.033 153.11 157.663 156.973 152.85 159.76C148.163 162.42 142.843 163.75 136.89 163.75C132.203 163.75 127.96 162.99 124.16 161.47C120.36 159.95 117.066 157.733 114.28 154.82C112.911 153.32 111.692 151.67 110.625 149.868C99.8447 152.742 89.2981 154.2 79 154.2C73.8359 154.2 68.8187 153.858 63.9531 153.17ZM140 97.3817C138.983 97.2939 137.946 97.25 136.89 97.25C132.203 97.25 127.96 98.01 124.16 99.53C120.36 101.05 117.066 103.267 114.28 106.18C111.62 109.093 109.53 112.64 108.01 116.82C106.49 120.873 105.73 125.433 105.73 130.5C105.73 135.56 106.488 140.177 108.004 144.353C98.0569 146.918 88.3891 148.2 79 148.2C73.1784 148.2 67.5854 147.743 62.2212 146.828C61.0802 141.661 60.5098 136.218 60.5098 130.5C60.5098 121.64 61.8794 113.441 64.6188 105.903C65.7 106.526 66.8271 107.092 68 107.6C72.1334 109.2 76.7334 110 81.8 110C85.6011 110 89.3344 109.56 93 108.679C94.4777 108.324 95.9444 107.898 97.4 107.4C97.9297 107.205 98.463 106.996 99 106.773V100.192V77.2V71.2H105H134H140V77.2V97.3817ZM146 98.4746C148.417 99.1665 150.7 100.152 152.85 101.43C157.663 104.09 162.033 107.89 165.96 112.83L194.27 87.56C187.683 78.9467 179.323 72.36 169.19 67.8C159.183 63.24 147.656 60.96 134.61 60.96C124.937 60.96 115.892 62.3733 107.475 65.2H140C143.314 65.2 146 67.8863 146 71.2V98.4746ZM93 71.7252C88.8186 74.1905 84.9552 77.0621 81.4098 80.34C75.3642 86.0367 70.5459 92.6939 66.9546 100.311C68.0015 100.956 69.108 101.535 70.2764 102.047C73.6016 103.317 77.4178 104 81.8 104C85.6126 104 89.3412 103.496 93 102.483V71.7252Z" fill="#FFA2B1"></path>
<path d="M79 148.2C67.6667 148.2 57.2 146.467 47.6 143C38.1333 139.4 29.8667 134.333 22.8 127.8C15.8667 121.267 10.4667 113.533 6.6 104.6C2.73333 95.6667 0.8 85.8 0.8 75C0.8 64.2 2.73333 54.3333 6.6 45.4C10.4667 36.4667 15.9333 28.7333 23 22.2C30.0667 15.6667 38.4 10.6667 48 7.2C57.7333 3.6 68.4 1.8 80 1.8C93.8667 1.8 106.2 4.13333 117 8.79999C127.933 13.4667 136.933 20.1333 144 28.8L113.8 55.4C109.4 50.3333 104.6 46.5333 99.4 44C94.3333 41.3333 88.6667 40 82.4 40C77.2 40 72.4667 40.8 68.2 42.4C64.0667 44 60.5333 46.3333 57.6 49.4C54.6667 52.4667 52.4 56.1333 50.8 60.4C49.2 64.6667 48.4 69.5333 48.4 75C48.4 80.2 49.2 85 50.8 89.4C52.4 93.6667 54.6667 97.3333 57.6 100.4C60.5333 103.467 64 105.867 68 107.6C72.1333 109.2 76.7333 110 81.8 110C87.1333 110 92.3333 109.133 97.4 107.4C102.467 105.533 107.867 102.4 113.6 98L140 130.4C131.467 136.133 121.733 140.533 110.8 143.6C99.8667 146.667 89.2667 148.2 79 148.2ZM99 124.4V71.2H140V130.4L99 124.4Z" fill="#ED4C67"></path>
</g>
<defs>
<clipPath id="SvgjsClipPath1000">
<rect width="200" height="200" fill="white"></rect>
</clipPath>
</defs>
</svg><style>@media (prefers-color-scheme: light) { :root { filter: none; } }
</style></svg>