<svg width="687" height="494" viewBox="0 0 687 494" fill="none" xmlns="http://www.w3.org/2000/svg">
<mask id="path-1-outside-1_11_2" maskUnits="userSpaceOnUse" x="17" y="26" width="656" height="447" fill="black">
<rect fill="white" x="17" y="26" width="656" height="447"/>
<path d="M19.2052 163.86L19.1927 163.335L19 162.635L19.1676 162.284L19.1427 161.396L20.6192 160.609L21.8455 159.058L22.8966 160.108L23.4721 159.658L24.4732 158.895L25.9498 156.982L27.3012 153.475L26.5504 151.679L26.7506 150.853L28.6275 148.977L28.9029 146.751L30.6297 143.775L30.6046 141.949L29.4784 140.323L27.9018 139.612L27.5264 138.259L26.8758 137.571L27.1335 135.965L25.8747 134.97L25.7245 133.869L27.4013 130.555L31.906 121.563L33.0572 118.248L32.9571 117.205L32.6568 114.922L33.4826 113.233L35.3696 111.232L35.5348 109.531L35.3596 106.83L35.3096 105.779L34.5538 105.016L32.4065 104.916L32.867 103.403L34.5538 103.853L36.5609 103.703L37.6119 103.178L39.7142 100.076L41.5912 99.2006L42.9676 97.0745L44.5192 95.6237L46.1959 92.0218L47.097 90.9963L48.7486 90.1708L50.0725 90.1958L55.4332 91.2589L58.6089 90.3709L62.3154 88.645L63.6667 87.6444L65.5037 85.093L67.2204 83.8924L67.4682 83.3321L66.7425 81.7413L66.9427 79.7126L69.2451 78.537L70.5964 78.4345L73.5246 80.3905L75.2264 80.4405L76.5602 79.9653L79.2081 77.3139L80.3592 75.1001L79.8937 74.1371L80.4168 72.8616L81.6681 71.7109L82.0059 70.7228L81.2326 69.6097L80.4068 68.4291L77.4786 62.2308L77.3311 61.1802L78.1795 59.3542L79.0553 58.5037L80.4068 58.0036L81.2827 58.2036L81.7331 58.9291L80.8573 59.6544L80.8322 60.3272L81.8333 61.2052L86.7759 61.0051L87.6118 60.4023L88.215 60.6049L88.5503 63.8817L88.1899 67.1334L88.8406 67.7587L90.5925 68.0215L91.6436 70.5852L92.7447 71.5832L93.12 72.9365L92.7197 75.2627L93.2427 78.9148L97.1243 86.7189L99.4992 87.5069L100.48 88.5699L101.479 91.7466L102.157 92.2469L103.106 92.3219L103.609 93.1223L106.059 93.7477L106.784 95.5987L107.988 95.7362L109.062 94.8483L109.637 94.9109L110.263 95.4211L110.238 97.1495L110.638 98.2376L111.542 98.9505L115.694 101.202L118.321 101.452L118.624 101.077L120.549 100.947L125.704 99.6508L131.237 97.4997L139.418 91.9717L144.499 88.72L146.111 88.4398L148.03 87.3943L148.926 86.3188L150.38 83.3321L149.864 79.3399L147.102 72.6364L145.85 71.6109L145.925 71.1106L147.027 70.7103L147.978 69.8098L149.381 69.6598L149.855 67.5836L150.633 66.5806L152.757 65.3299L151.731 63.4064L151.706 62.3058L152.883 60.855L154.87 58.3787L156.789 57.2005L160.065 56.7654L161.992 57.6934L163.519 59.2042L164.567 59.4668L166.234 58.3037L166.997 58.6289L168.724 61.9681L169.95 62.556L172.1 62.631L175.757 61.6805L179.838 59.5043L181.615 58.2036L182.764 56.5752L183.315 53.151L184.418 53.2134L185.392 54.2516L186.443 54.5667L187.894 54.0464L189.371 54.2641L190.072 54.0013L190.922 52.4255L192.049 52.1504L194.494 50.1243L196.028 49.599L196.653 49.669L197.982 48.4984H198.666L199.682 50.4996L200.733 50.9472L201.691 51.3374L201.609 53.6387V53.8013L203.486 55.9024L204.194 56.7028L206.614 56.5277L207.267 56.903L209.041 60.4023L209.166 62.9812L210.265 65.9077L210.618 68.0589L209.825 71.3107L209.817 71.5358L209.667 73.737L210.418 76.1508L212.195 78.1894L217.6 81.5886L221.68 81.7663L223.932 82.8118L228.136 82.4416L231.968 81.1909L233.702 80.6908L236.933 78.5145L237.924 76.4534L239.949 77.489L242.551 78.2268L243.295 78.9398L243.377 80.9158L244.428 83.1295L243.978 86.2186L244.779 87.6444L244.003 89.9706L244.103 91.2463L245.229 92.4469L246.581 94.1229L249.681 98.0376L251.411 99.4508L254.687 100.974L256.616 101.327L261.073 105.279L264.65 106.129L265.676 107.33L269.677 109.656L273.586 110.382L275.098 110.429L275.161 110.482L276.349 111.157L279.087 111.472V111.982L277.888 112.558L278.214 113.556L278.437 113.608L282.168 114.534L284.445 116.01L285.839 116.172L292.616 115.159L296.508 114.559L300.913 112.983L303.44 112.808L307.319 111.832L310.022 110.507L319.657 104.801L323.639 101.877L324.838 100.801L326.442 100.114L328.066 100.176L330.969 98.6253L332.869 99.3507L334.745 99.4258L336.575 98.5003L338.877 98.2001L340.304 97.0895L341.58 97.1244L344.859 98.6629L346.185 100.001L349.513 101.527L351.19 102.327L355.495 102.225L358.498 103.428L360.775 103.328L363.828 102.515L364.607 101.877L365.455 99.5759L366.606 99.851L370.711 102.703L373.849 102.752L374.364 103.203L377.746 103.403L380.171 104.593L382.673 104.754L384.15 105.729L385.424 105.904L388.479 105.949L390.707 105.104L392.158 105.324L395.937 106.267L397.336 105.844L400.917 105.679L406.28 103.475L411.879 104.176L417.635 101.572L421.689 98.4727L424.492 96.7493L425.593 96.8869L427.645 98.5252L432.951 98.8504L434.602 98.4252H437.33L443.239 96.4991L449.761 91.8842L455.952 92.0218L459.378 89.3829L462.582 89.4204L464.086 88.7951L468.763 85.0681L472.077 83.5397L478.541 75.0001L485.08 67.3586L486.232 65.1323L486.832 64.6571L487.883 64.532L488.509 65.1824L492.826 66.8332L496.042 67.0334L498.219 66.448L506.378 64.1543L510.057 62.5934L513.683 63.0562L516.363 61.7556L521.794 57.2531L522.745 57.003L523.646 57.6934L524.839 59.9295L526.451 60.655L527.375 61.0802L528.251 63.0063L532.405 67.6838L532.868 68.2089L536.206 68.1841L538.386 68.159H540.138L541.69 68.7343L543.567 68.7468L547.623 68.0089L548.93 68.8844L550.807 71.5358L550.752 73.5118L551.525 74.0846L558.56 76.6384L562.379 74.5774L563.465 73.7119L566.941 70.8104L569.887 69.9975L573.015 67.9589L580.906 59.6544L583.959 53.9413L584.069 53.7012L584.134 53.6012L584.334 52.7256L584.685 51.0498L584.737 50.9197L585.31 49.399L586.562 46.1347L586.211 42.2676L586.572 40.144L585.911 38.1928L583.651 37.3425L584.277 36.2669H586.572L589.565 43.2957L589.117 47.0627L588.839 49.2489L588.739 50.1243L588.414 50.7121L588.031 51.4L588.864 51.8502L590.794 52.9258L594.602 53.5511L597.198 53.8013L598.602 53.5511L605.206 51.3374L608.91 50.8496L611.495 49.8742L623.225 44.2961L628.333 41.8449L632.244 39.0934L638.018 34.5909L642.463 30.4638L645.548 28.6253L647.625 28L649.502 28.1626L652.13 29.6583L656.835 33.0027L662.378 35.9668L664.118 36.3669L666.237 36.2168L670.552 36.9922L671 37.38L670.825 38.2429L669.496 39.3435L661.067 41.92L657.261 44.6213L655.033 48.1107L653.782 52.4255L653.256 53.7012L651.63 57.6534L651.742 58.4788L652.631 58.7414L653.985 57.0531L653.607 56.1025L653.807 55.6773L654.858 55.9775L655.459 56.8028L655.209 58.3187L654.107 60.8051L651.905 63.8441L649.605 67.0734L648.719 68.2841L645.899 74.0846L642.463 81.6162L640.846 86.3937L638.666 90.521L634.912 96.2991L629.932 100.776L628.756 104.979L626.904 106.955L626.178 108.531L623.125 111.882L617.494 119.336L616.445 120.512L615.091 123.289L611.212 128.391L609.786 130.467L608.885 133.319L606.207 135.895L604.881 138.522L600.379 143.224L599.553 147.301L599.775 148.427L599.918 149.303L599.175 150.803L598.459 151.291L598.199 151.479L596.947 151.256L594.602 154.706L594.32 155.181L594.392 156.056L595.07 156.807L592.145 159.683L591.041 161.359L590.691 161.334L590.794 161.832L585.423 169.889L581.006 179.694L581.031 179.869L581.106 180.419L581.231 181.47L581.669 181.795L582.007 182.02L582.505 184.321L584.134 186.845L583.809 188.048L580.731 193.476L579.579 198.254L579.504 201.881L579.166 202.731L575.475 207.571L574.849 210.686L574.474 212.539L574.324 217.259L574.997 221.891L574.526 223.615L573.248 225.181L572.697 227.394L570.92 228.595L568.418 232.422L567.489 232.722L564.881 235.394L563.365 235.749L562.762 236.337L563.11 237.225L562.939 237.875L562.687 238.213L560.294 241.647L559.043 243.418L558.56 244.103L557.131 246.154L556.83 247.78L556.78 248.055V248.255V251.652V251.732L556.805 252.683V253.208L556.853 254.309L557.531 265.067L557.504 268.564L557.031 269.967L557.156 275.698L557.999 280.835L557.756 288.024L558.417 291.504L559.934 294.63L563.713 295.056L567.266 295.946L570.67 300.308L571.398 300.384L571.894 300.428L572.65 298.933L575.6 300.428L576.351 301.371L576.226 301.859L577.677 301.934L578.954 300.531L579.054 299.158L580.315 299.28L581.556 300.456L582.582 303.335L584.559 305.886L587.362 308.313L589.164 311.579L590.428 313.015L589.465 314.891L589.177 315.464L587.488 315.742L586.186 314.081L584.985 313.588L584.51 314.016L584.407 318.918L583.781 320.131L583.108 320.097L582.682 319.169L583.286 316.892L583.258 314.891L583.025 314.391L582.715 313.741L581.832 312.963L580.756 312.715L577.955 314.366L577.452 315.464L577.955 317.443L577.677 318.356L575.9 321.245L576.226 321.482L577.052 326.693L577.903 328.424L579.732 330.445L579.106 331.387L580.605 335.402L581.756 337.015L583.386 337.218L584.309 336.903L584.86 336.1L584.797 334.777L585.285 334.402L587.095 336.228L587.24 336.49L587.72 337.641L587.262 338.204L585.085 337.804L584.069 338.104L583.443 340.43L584.059 342.609L584.935 344.057L587.095 345.583L587.866 347.159L589.765 347.484L591.041 348.579L592.818 348.807L594.77 347.849L597.298 348.459L598.424 348.709L598.982 349.66L599.475 353.937L599.525 356.263V356.339L598.301 359.515L599.075 360.688L598.624 362.754L598.274 362.989L597.521 361.566L595.538 360.766L595.018 360.966L594.287 362.962L595.173 365.463L596.524 367.795L597.298 368.045L600.233 366.394L600.649 366.544L602.881 367.394L604.298 371.509L606.735 375.224L606.305 376.299L602.551 375.786H602.503L600.852 374.198L599.25 374.173L598.356 374.973L597.073 376.197L596.372 376.299L595.273 375.496L593.977 375.874L592.725 376.719L592.202 377.75L592.771 381.777L591.767 383.153L591.289 384.979L585.989 385.454L583.443 387.655L582.708 387.83L581.231 387.378L580.68 389.481L578.879 389.851L577.452 391.385L574.627 396.885L570.545 399.487L566.966 408.542L566.263 411.14L566.238 411.893L563.062 415.37L561.51 418.072L560.785 421.473L561.335 425.376L561.127 427.527L560.059 430.101L558.73 431.019L558.908 434.13L558.282 435.256V436.256V436.544L559.408 439.133L559.771 442.037L561.21 445.011L563.32 446.687L562.739 447.537L563.76 450.536L563.11 454.941L563.487 455.992L565.968 459.744L566.916 461.993L566.991 463.171L565.665 466.398L565.299 467.273L564.864 467.248L564.616 465.209L563.365 464.919L561.648 465.497L561.127 465.972L560.584 467.913L559.133 468.173L557.456 470.212L556.28 470.925L555.354 471L550.699 467.273L549.075 463.571L547.363 461.32L544.893 458.693L544.392 458.431L543.266 457.805L539.022 457.117L538.396 457.49L538.286 457.543L536.334 460.307L535.333 460.77L532.405 460.514L531.096 460.394L528.724 459.784L527.425 458.894L524.529 455.192L522.319 453.316L517.539 450.864L512.009 449.939L510.084 450.289L508.855 450.914L507.003 453.038L504.801 453.19L503.567 454.191L502.474 454.441L500.822 454.191L499.943 454.579L497.618 456.865L496.267 457.443L495.123 457.18L493.817 455.967L492.488 455.442L489.933 455.266L489.282 454.441L487.608 452.385L486.832 452.24L485.206 453.816L483.807 452.89L482.528 453.293L480.418 453.113L478.276 453.941L475.673 452.84L475.205 452.668L472.968 448.188L471.266 446.212L464.434 441.309L460.232 440.033L458.88 439.233L455.7 437.682L448.302 435.729L447.519 435.706L446.322 436.506L443.487 435.581L439.833 434.655L436.752 434.305L434.628 432.692L432.926 429.002L431.474 427.474L429.845 426.676L429.497 421.674L427.845 415.695L426.404 411.766L425.968 410.542L425.042 408.767L423.418 407.216L422.014 404.887L420.212 400.062L419.039 399.024L418.373 396.132L415.87 391.52L409.354 382.242L405.074 376.174L394.736 365.691L389.305 362.592L386.452 360.391L382.998 359.835L382.573 358.965L382.295 358.377L379.47 356.709L378.669 356.238L371.869 353.662L368.033 351.733L365.33 351.586L360.525 350.31L357.672 349.585L351.065 348.474L344.934 349.26L339.528 348.509L330.821 348.634L329.14 349.185L327.115 351.498L326.539 351.961L326.489 352.011L326.464 352.024L323.236 351.636L322.488 351.561L320.308 351.661L318.957 352.161L316.078 351.886L314.377 351.011L312.074 350.51L309.221 347.534L308.678 345.833L307.427 343.707L302.837 339.655L301.115 338.979L296.791 338.154L293.505 338.354L292.616 338.879L289.2 337.844L286.948 337.703L284.896 336.355L282.693 333.076L280.992 331.475L278.94 331.097L277.498 330.4L271.632 326.067L269.104 325.337L266.927 320.722L264.8 317.393L263.173 315.792L261.621 315.517L260.595 314.791L256.216 310.064L252.237 307.687L251.461 306.284L249.158 303.76L245.48 301.259L243.92 301.009L243.087 300.884L243.19 302.097L242.727 302.66L242.359 302.134L242.026 302.26L241.548 303.285L240.875 302.184L240.584 301.734L240.272 301.534L239.573 301.081L236.195 300.221L233.745 301.359L232.116 301.282L229.388 299.233L225.934 299.008L224.758 297.53L223.031 296.779L220.606 294.33L218.652 291.554L214.645 287.949L212.795 287.089L211.569 285.523L208.316 284.197L205.886 281.696L204.787 281.043L200.44 280.798L195.703 274.52L193.703 273.539L192.074 273.231L189.804 273.567L189.521 273.169L187.644 266.966L185.317 262.908L183.264 261.213L180.859 257.035L178.162 253.658L177.183 253.358L176.039 252.233L175.359 252.032L174.706 252.883L174.162 252.758L172.979 249.831L169.928 245.879L168.724 245.191L164.923 244.704L162.117 245.179L161.795 244.043L159.64 244.876L156.018 243.053L153.884 242.652L150.755 242.878L148.228 242.152L145.675 242.452L143.651 244.303L140.522 244.228L138.793 244.729L138.08 244.354L136.726 239.526L135.617 237.775L135.014 236.824L133.763 235.574L132.711 233.097L129.843 230.321L128.109 227.77L124.055 224.343L122.278 223.367L120.023 223.54L117.643 222.782L114.515 223.717L109.888 222.117L107.285 221.636H98.4581L93.6582 221.766L92.0439 221.391L85.9901 222.489L77.2309 225.416L70.2486 227.785L68.5719 226.794L66.795 226.319L63.9921 222.99L62.0876 219.015L58.1835 212.862L56.6069 207.356L55.5332 205.883L54.5046 205.17L50.6981 202.534L50.2827 202.251L48.123 200.88L46.4463 200.355L43.841 200.055L40.8653 201.228L38.4879 200.692L38.08 199.777L37.7622 198.954L36.6109 198.429L32.7068 194.627L30.5546 191.075L29.2782 190.652L28.59 189.014L29.1531 187.498L29.003 186.748L27.6265 184.471L28.2972 182.395L28.1746 178.843L25.4492 171.664L22.8565 167.587L21.7453 165.811L21.2198 165.611L20.6442 166.137L19.2052 163.86Z"/>
</mask>
<path d="M19.2052 163.86L19.1927 163.335L19 162.635L19.1676 162.284L19.1427 161.396L20.6192 160.609L21.8455 159.058L22.8966 160.108L23.4721 159.658L24.4732 158.895L25.9498 156.982L27.3012 153.475L26.5504 151.679L26.7506 150.853L28.6275 148.977L28.9029 146.751L30.6297 143.775L30.6046 141.949L29.4784 140.323L27.9018 139.612L27.5264 138.259L26.8758 137.571L27.1335 135.965L25.8747 134.97L25.7245 133.869L27.4013 130.555L31.906 121.563L33.0572 118.248L32.9571 117.205L32.6568 114.922L33.4826 113.233L35.3696 111.232L35.5348 109.531L35.3596 106.83L35.3096 105.779L34.5538 105.016L32.4065 104.916L32.867 103.403L34.5538 103.853L36.5609 103.703L37.6119 103.178L39.7142 100.076L41.5912 99.2006L42.9676 97.0745L44.5192 95.6237L46.1959 92.0218L47.097 90.9963L48.7486 90.1708L50.0725 90.1958L55.4332 91.2589L58.6089 90.3709L62.3154 88.645L63.6667 87.6444L65.5037 85.093L67.2204 83.8924L67.4682 83.3321L66.7425 81.7413L66.9427 79.7126L69.2451 78.537L70.5964 78.4345L73.5246 80.3905L75.2264 80.4405L76.5602 79.9653L79.2081 77.3139L80.3592 75.1001L79.8937 74.1371L80.4168 72.8616L81.6681 71.7109L82.0059 70.7228L81.2326 69.6097L80.4068 68.4291L77.4786 62.2308L77.3311 61.1802L78.1795 59.3542L79.0553 58.5037L80.4068 58.0036L81.2827 58.2036L81.7331 58.9291L80.8573 59.6544L80.8322 60.3272L81.8333 61.2052L86.7759 61.0051L87.6118 60.4023L88.215 60.6049L88.5503 63.8817L88.1899 67.1334L88.8406 67.7587L90.5925 68.0215L91.6436 70.5852L92.7447 71.5832L93.12 72.9365L92.7197 75.2627L93.2427 78.9148L97.1243 86.7189L99.4992 87.5069L100.48 88.5699L101.479 91.7466L102.157 92.2469L103.106 92.3219L103.609 93.1223L106.059 93.7477L106.784 95.5987L107.988 95.7362L109.062 94.8483L109.637 94.9109L110.263 95.4211L110.238 97.1495L110.638 98.2376L111.542 98.9505L115.694 101.202L118.321 101.452L118.624 101.077L120.549 100.947L125.704 99.6508L131.237 97.4997L139.418 91.9717L144.499 88.72L146.111 88.4398L148.03 87.3943L148.926 86.3188L150.38 83.3321L149.864 79.3399L147.102 72.6364L145.85 71.6109L145.925 71.1106L147.027 70.7103L147.978 69.8098L149.381 69.6598L149.855 67.5836L150.633 66.5806L152.757 65.3299L151.731 63.4064L151.706 62.3058L152.883 60.855L154.87 58.3787L156.789 57.2005L160.065 56.7654L161.992 57.6934L163.519 59.2042L164.567 59.4668L166.234 58.3037L166.997 58.6289L168.724 61.9681L169.95 62.556L172.1 62.631L175.757 61.6805L179.838 59.5043L181.615 58.2036L182.764 56.5752L183.315 53.151L184.418 53.2134L185.392 54.2516L186.443 54.5667L187.894 54.0464L189.371 54.2641L190.072 54.0013L190.922 52.4255L192.049 52.1504L194.494 50.1243L196.028 49.599L196.653 49.669L197.982 48.4984H198.666L199.682 50.4996L200.733 50.9472L201.691 51.3374L201.609 53.6387V53.8013L203.486 55.9024L204.194 56.7028L206.614 56.5277L207.267 56.903L209.041 60.4023L209.166 62.9812L210.265 65.9077L210.618 68.0589L209.825 71.3107L209.817 71.5358L209.667 73.737L210.418 76.1508L212.195 78.1894L217.6 81.5886L221.68 81.7663L223.932 82.8118L228.136 82.4416L231.968 81.1909L233.702 80.6908L236.933 78.5145L237.924 76.4534L239.949 77.489L242.551 78.2268L243.295 78.9398L243.377 80.9158L244.428 83.1295L243.978 86.2186L244.779 87.6444L244.003 89.9706L244.103 91.2463L245.229 92.4469L246.581 94.1229L249.681 98.0376L251.411 99.4508L254.687 100.974L256.616 101.327L261.073 105.279L264.65 106.129L265.676 107.33L269.677 109.656L273.586 110.382L275.098 110.429L275.161 110.482L276.349 111.157L279.087 111.472V111.982L277.888 112.558L278.214 113.556L278.437 113.608L282.168 114.534L284.445 116.01L285.839 116.172L292.616 115.159L296.508 114.559L300.913 112.983L303.44 112.808L307.319 111.832L310.022 110.507L319.657 104.801L323.639 101.877L324.838 100.801L326.442 100.114L328.066 100.176L330.969 98.6253L332.869 99.3507L334.745 99.4258L336.575 98.5003L338.877 98.2001L340.304 97.0895L341.58 97.1244L344.859 98.6629L346.185 100.001L349.513 101.527L351.19 102.327L355.495 102.225L358.498 103.428L360.775 103.328L363.828 102.515L364.607 101.877L365.455 99.5759L366.606 99.851L370.711 102.703L373.849 102.752L374.364 103.203L377.746 103.403L380.171 104.593L382.673 104.754L384.15 105.729L385.424 105.904L388.479 105.949L390.707 105.104L392.158 105.324L395.937 106.267L397.336 105.844L400.917 105.679L406.28 103.475L411.879 104.176L417.635 101.572L421.689 98.4727L424.492 96.7493L425.593 96.8869L427.645 98.5252L432.951 98.8504L434.602 98.4252H437.33L443.239 96.4991L449.761 91.8842L455.952 92.0218L459.378 89.3829L462.582 89.4204L464.086 88.7951L468.763 85.0681L472.077 83.5397L478.541 75.0001L485.08 67.3586L486.232 65.1323L486.832 64.6571L487.883 64.532L488.509 65.1824L492.826 66.8332L496.042 67.0334L498.219 66.448L506.378 64.1543L510.057 62.5934L513.683 63.0562L516.363 61.7556L521.794 57.2531L522.745 57.003L523.646 57.6934L524.839 59.9295L526.451 60.655L527.375 61.0802L528.251 63.0063L532.405 67.6838L532.868 68.2089L536.206 68.1841L538.386 68.159H540.138L541.69 68.7343L543.567 68.7468L547.623 68.0089L548.93 68.8844L550.807 71.5358L550.752 73.5118L551.525 74.0846L558.56 76.6384L562.379 74.5774L563.465 73.7119L566.941 70.8104L569.887 69.9975L573.015 67.9589L580.906 59.6544L583.959 53.9413L584.069 53.7012L584.134 53.6012L584.334 52.7256L584.685 51.0498L584.737 50.9197L585.31 49.399L586.562 46.1347L586.211 42.2676L586.572 40.144L585.911 38.1928L583.651 37.3425L584.277 36.2669H586.572L589.565 43.2957L589.117 47.0627L588.839 49.2489L588.739 50.1243L588.414 50.7121L588.031 51.4L588.864 51.8502L590.794 52.9258L594.602 53.5511L597.198 53.8013L598.602 53.5511L605.206 51.3374L608.91 50.8496L611.495 49.8742L623.225 44.2961L628.333 41.8449L632.244 39.0934L638.018 34.5909L642.463 30.4638L645.548 28.6253L647.625 28L649.502 28.1626L652.13 29.6583L656.835 33.0027L662.378 35.9668L664.118 36.3669L666.237 36.2168L670.552 36.9922L671 37.38L670.825 38.2429L669.496 39.3435L661.067 41.92L657.261 44.6213L655.033 48.1107L653.782 52.4255L653.256 53.7012L651.63 57.6534L651.742 58.4788L652.631 58.7414L653.985 57.0531L653.607 56.1025L653.807 55.6773L654.858 55.9775L655.459 56.8028L655.209 58.3187L654.107 60.8051L651.905 63.8441L649.605 67.0734L648.719 68.2841L645.899 74.0846L642.463 81.6162L640.846 86.3937L638.666 90.521L634.912 96.2991L629.932 100.776L628.756 104.979L626.904 106.955L626.178 108.531L623.125 111.882L617.494 119.336L616.445 120.512L615.091 123.289L611.212 128.391L609.786 130.467L608.885 133.319L606.207 135.895L604.881 138.522L600.379 143.224L599.553 147.301L599.775 148.427L599.918 149.303L599.175 150.803L598.459 151.291L598.199 151.479L596.947 151.256L594.602 154.706L594.32 155.181L594.392 156.056L595.07 156.807L592.145 159.683L591.041 161.359L590.691 161.334L590.794 161.832L585.423 169.889L581.006 179.694L581.031 179.869L581.106 180.419L581.231 181.47L581.669 181.795L582.007 182.02L582.505 184.321L584.134 186.845L583.809 188.048L580.731 193.476L579.579 198.254L579.504 201.881L579.166 202.731L575.475 207.571L574.849 210.686L574.474 212.539L574.324 217.259L574.997 221.891L574.526 223.615L573.248 225.181L572.697 227.394L570.92 228.595L568.418 232.422L567.489 232.722L564.881 235.394L563.365 235.749L562.762 236.337L563.11 237.225L562.939 237.875L562.687 238.213L560.294 241.647L559.043 243.418L558.56 244.103L557.131 246.154L556.83 247.78L556.78 248.055V248.255V251.652V251.732L556.805 252.683V253.208L556.853 254.309L557.531 265.067L557.504 268.564L557.031 269.967L557.156 275.698L557.999 280.835L557.756 288.024L558.417 291.504L559.934 294.63L563.713 295.056L567.266 295.946L570.67 300.308L571.398 300.384L571.894 300.428L572.65 298.933L575.6 300.428L576.351 301.371L576.226 301.859L577.677 301.934L578.954 300.531L579.054 299.158L580.315 299.28L581.556 300.456L582.582 303.335L584.559 305.886L587.362 308.313L589.164 311.579L590.428 313.015L589.465 314.891L589.177 315.464L587.488 315.742L586.186 314.081L584.985 313.588L584.51 314.016L584.407 318.918L583.781 320.131L583.108 320.097L582.682 319.169L583.286 316.892L583.258 314.891L583.025 314.391L582.715 313.741L581.832 312.963L580.756 312.715L577.955 314.366L577.452 315.464L577.955 317.443L577.677 318.356L575.9 321.245L576.226 321.482L577.052 326.693L577.903 328.424L579.732 330.445L579.106 331.387L580.605 335.402L581.756 337.015L583.386 337.218L584.309 336.903L584.86 336.1L584.797 334.777L585.285 334.402L587.095 336.228L587.24 336.49L587.72 337.641L587.262 338.204L585.085 337.804L584.069 338.104L583.443 340.43L584.059 342.609L584.935 344.057L587.095 345.583L587.866 347.159L589.765 347.484L591.041 348.579L592.818 348.807L594.77 347.849L597.298 348.459L598.424 348.709L598.982 349.66L599.475 353.937L599.525 356.263V356.339L598.301 359.515L599.075 360.688L598.624 362.754L598.274 362.989L597.521 361.566L595.538 360.766L595.018 360.966L594.287 362.962L595.173 365.463L596.524 367.795L597.298 368.045L600.233 366.394L600.649 366.544L602.881 367.394L604.298 371.509L606.735 375.224L606.305 376.299L602.551 375.786H602.503L600.852 374.198L599.25 374.173L598.356 374.973L597.073 376.197L596.372 376.299L595.273 375.496L593.977 375.874L592.725 376.719L592.202 377.75L592.771 381.777L591.767 383.153L591.289 384.979L585.989 385.454L583.443 387.655L582.708 387.83L581.231 387.378L580.68 389.481L578.879 389.851L577.452 391.385L574.627 396.885L570.545 399.487L566.966 408.542L566.263 411.14L566.238 411.893L563.062 415.37L561.51 418.072L560.785 421.473L561.335 425.376L561.127 427.527L560.059 430.101L558.73 431.019L558.908 434.13L558.282 435.256V436.256V436.544L559.408 439.133L559.771 442.037L561.21 445.011L563.32 446.687L562.739 447.537L563.76 450.536L563.11 454.941L563.487 455.992L565.968 459.744L566.916 461.993L566.991 463.171L565.665 466.398L565.299 467.273L564.864 467.248L564.616 465.209L563.365 464.919L561.648 465.497L561.127 465.972L560.584 467.913L559.133 468.173L557.456 470.212L556.28 470.925L555.354 471L550.699 467.273L549.075 463.571L547.363 461.32L544.893 458.693L544.392 458.431L543.266 457.805L539.022 457.117L538.396 457.49L538.286 457.543L536.334 460.307L535.333 460.77L532.405 460.514L531.096 460.394L528.724 459.784L527.425 458.894L524.529 455.192L522.319 453.316L517.539 450.864L512.009 449.939L510.084 450.289L508.855 450.914L507.003 453.038L504.801 453.19L503.567 454.191L502.474 454.441L500.822 454.191L499.943 454.579L497.618 456.865L496.267 457.443L495.123 457.18L493.817 455.967L492.488 455.442L489.933 455.266L489.282 454.441L487.608 452.385L486.832 452.24L485.206 453.816L483.807 452.89L482.528 453.293L480.418 453.113L478.276 453.941L475.673 452.84L475.205 452.668L472.968 448.188L471.266 446.212L464.434 441.309L460.232 440.033L458.88 439.233L455.7 437.682L448.302 435.729L447.519 435.706L446.322 436.506L443.487 435.581L439.833 434.655L436.752 434.305L434.628 432.692L432.926 429.002L431.474 427.474L429.845 426.676L429.497 421.674L427.845 415.695L426.404 411.766L425.968 410.542L425.042 408.767L423.418 407.216L422.014 404.887L420.212 400.062L419.039 399.024L418.373 396.132L415.87 391.52L409.354 382.242L405.074 376.174L394.736 365.691L389.305 362.592L386.452 360.391L382.998 359.835L382.573 358.965L382.295 358.377L379.47 356.709L378.669 356.238L371.869 353.662L368.033 351.733L365.33 351.586L360.525 350.31L357.672 349.585L351.065 348.474L344.934 349.26L339.528 348.509L330.821 348.634L329.14 349.185L327.115 351.498L326.539 351.961L326.489 352.011L326.464 352.024L323.236 351.636L322.488 351.561L320.308 351.661L318.957 352.161L316.078 351.886L314.377 351.011L312.074 350.51L309.221 347.534L308.678 345.833L307.427 343.707L302.837 339.655L301.115 338.979L296.791 338.154L293.505 338.354L292.616 338.879L289.2 337.844L286.948 337.703L284.896 336.355L282.693 333.076L280.992 331.475L278.94 331.097L277.498 330.4L271.632 326.067L269.104 325.337L266.927 320.722L264.8 317.393L263.173 315.792L261.621 315.517L260.595 314.791L256.216 310.064L252.237 307.687L251.461 306.284L249.158 303.76L245.48 301.259L243.92 301.009L243.087 300.884L243.19 302.097L242.727 302.66L242.359 302.134L242.026 302.26L241.548 303.285L240.875 302.184L240.584 301.734L240.272 301.534L239.573 301.081L236.195 300.221L233.745 301.359L232.116 301.282L229.388 299.233L225.934 299.008L224.758 297.53L223.031 296.779L220.606 294.33L218.652 291.554L214.645 287.949L212.795 287.089L211.569 285.523L208.316 284.197L205.886 281.696L204.787 281.043L200.44 280.798L195.703 274.52L193.703 273.539L192.074 273.231L189.804 273.567L189.521 273.169L187.644 266.966L185.317 262.908L183.264 261.213L180.859 257.035L178.162 253.658L177.183 253.358L176.039 252.233L175.359 252.032L174.706 252.883L174.162 252.758L172.979 249.831L169.928 245.879L168.724 245.191L164.923 244.704L162.117 245.179L161.795 244.043L159.64 244.876L156.018 243.053L153.884 242.652L150.755 242.878L148.228 242.152L145.675 242.452L143.651 244.303L140.522 244.228L138.793 244.729L138.08 244.354L136.726 239.526L135.617 237.775L135.014 236.824L133.763 235.574L132.711 233.097L129.843 230.321L128.109 227.77L124.055 224.343L122.278 223.367L120.023 223.54L117.643 222.782L114.515 223.717L109.888 222.117L107.285 221.636H98.4581L93.6582 221.766L92.0439 221.391L85.9901 222.489L77.2309 225.416L70.2486 227.785L68.5719 226.794L66.795 226.319L63.9921 222.99L62.0876 219.015L58.1835 212.862L56.6069 207.356L55.5332 205.883L54.5046 205.17L50.6981 202.534L50.2827 202.251L48.123 200.88L46.4463 200.355L43.841 200.055L40.8653 201.228L38.4879 200.692L38.08 199.777L37.7622 198.954L36.6109 198.429L32.7068 194.627L30.5546 191.075L29.2782 190.652L28.59 189.014L29.1531 187.498L29.003 186.748L27.6265 184.471L28.2972 182.395L28.1746 178.843L25.4492 171.664L22.8565 167.587L21.7453 165.811L21.2198 165.611L20.6442 166.137L19.2052 163.86Z" fill="#244E66"/>
<path d="M19.2052 163.86L19.1927 163.335L19 162.635L19.1676 162.284L19.1427 161.396L20.6192 160.609L21.8455 159.058L22.8966 160.108L23.4721 159.658L24.4732 158.895L25.9498 156.982L27.3012 153.475L26.5504 151.679L26.7506 150.853L28.6275 148.977L28.9029 146.751L30.6297 143.775L30.6046 141.949L29.4784 140.323L27.9018 139.612L27.5264 138.259L26.8758 137.571L27.1335 135.965L25.8747 134.97L25.7245 133.869L27.4013 130.555L31.906 121.563L33.0572 118.248L32.9571 117.205L32.6568 114.922L33.4826 113.233L35.3696 111.232L35.5348 109.531L35.3596 106.83L35.3096 105.779L34.5538 105.016L32.4065 104.916L32.867 103.403L34.5538 103.853L36.5609 103.703L37.6119 103.178L39.7142 100.076L41.5912 99.2006L42.9676 97.0745L44.5192 95.6237L46.1959 92.0218L47.097 90.9963L48.7486 90.1708L50.0725 90.1958L55.4332 91.2589L58.6089 90.3709L62.3154 88.645L63.6667 87.6444L65.5037 85.093L67.2204 83.8924L67.4682 83.3321L66.7425 81.7413L66.9427 79.7126L69.2451 78.537L70.5964 78.4345L73.5246 80.3905L75.2264 80.4405L76.5602 79.9653L79.2081 77.3139L80.3592 75.1001L79.8937 74.1371L80.4168 72.8616L81.6681 71.7109L82.0059 70.7228L81.2326 69.6097L80.4068 68.4291L77.4786 62.2308L77.3311 61.1802L78.1795 59.3542L79.0553 58.5037L80.4068 58.0036L81.2827 58.2036L81.7331 58.9291L80.8573 59.6544L80.8322 60.3272L81.8333 61.2052L86.7759 61.0051L87.6118 60.4023L88.215 60.6049L88.5503 63.8817L88.1899 67.1334L88.8406 67.7587L90.5925 68.0215L91.6436 70.5852L92.7447 71.5832L93.12 72.9365L92.7197 75.2627L93.2427 78.9148L97.1243 86.7189L99.4992 87.5069L100.48 88.5699L101.479 91.7466L102.157 92.2469L103.106 92.3219L103.609 93.1223L106.059 93.7477L106.784 95.5987L107.988 95.7362L109.062 94.8483L109.637 94.9109L110.263 95.4211L110.238 97.1495L110.638 98.2376L111.542 98.9505L115.694 101.202L118.321 101.452L118.624 101.077L120.549 100.947L125.704 99.6508L131.237 97.4997L139.418 91.9717L144.499 88.72L146.111 88.4398L148.03 87.3943L148.926 86.3188L150.38 83.3321L149.864 79.3399L147.102 72.6364L145.85 71.6109L145.925 71.1106L147.027 70.7103L147.978 69.8098L149.381 69.6598L149.855 67.5836L150.633 66.5806L152.757 65.3299L151.731 63.4064L151.706 62.3058L152.883 60.855L154.87 58.3787L156.789 57.2005L160.065 56.7654L161.992 57.6934L163.519 59.2042L164.567 59.4668L166.234 58.3037L166.997 58.6289L168.724 61.9681L169.95 62.556L172.1 62.631L175.757 61.6805L179.838 59.5043L181.615 58.2036L182.764 56.5752L183.315 53.151L184.418 53.2134L185.392 54.2516L186.443 54.5667L187.894 54.0464L189.371 54.2641L190.072 54.0013L190.922 52.4255L192.049 52.1504L194.494 50.1243L196.028 49.599L196.653 49.669L197.982 48.4984H198.666L199.682 50.4996L200.733 50.9472L201.691 51.3374L201.609 53.6387V53.8013L203.486 55.9024L204.194 56.7028L206.614 56.5277L207.267 56.903L209.041 60.4023L209.166 62.9812L210.265 65.9077L210.618 68.0589L209.825 71.3107L209.817 71.5358L209.667 73.737L210.418 76.1508L212.195 78.1894L217.6 81.5886L221.68 81.7663L223.932 82.8118L228.136 82.4416L231.968 81.1909L233.702 80.6908L236.933 78.5145L237.924 76.4534L239.949 77.489L242.551 78.2268L243.295 78.9398L243.377 80.9158L244.428 83.1295L243.978 86.2186L244.779 87.6444L244.003 89.9706L244.103 91.2463L245.229 92.4469L246.581 94.1229L249.681 98.0376L251.411 99.4508L254.687 100.974L256.616 101.327L261.073 105.279L264.65 106.129L265.676 107.33L269.677 109.656L273.586 110.382L275.098 110.429L275.161 110.482L276.349 111.157L279.087 111.472V111.982L277.888 112.558L278.214 113.556L278.437 113.608L282.168 114.534L284.445 116.01L285.839 116.172L292.616 115.159L296.508 114.559L300.913 112.983L303.44 112.808L307.319 111.832L310.022 110.507L319.657 104.801L323.639 101.877L324.838 100.801L326.442 100.114L328.066 100.176L330.969 98.6253L332.869 99.3507L334.745 99.4258L336.575 98.5003L338.877 98.2001L340.304 97.0895L341.58 97.1244L344.859 98.6629L346.185 100.001L349.513 101.527L351.19 102.327L355.495 102.225L358.498 103.428L360.775 103.328L363.828 102.515L364.607 101.877L365.455 99.5759L366.606 99.851L370.711 102.703L373.849 102.752L374.364 103.203L377.746 103.403L380.171 104.593L382.673 104.754L384.15 105.729L385.424 105.904L388.479 105.949L390.707 105.104L392.158 105.324L395.937 106.267L397.336 105.844L400.917 105.679L406.28 103.475L411.879 104.176L417.635 101.572L421.689 98.4727L424.492 96.7493L425.593 96.8869L427.645 98.5252L432.951 98.8504L434.602 98.4252H437.33L443.239 96.4991L449.761 91.8842L455.952 92.0218L459.378 89.3829L462.582 89.4204L464.086 88.7951L468.763 85.0681L472.077 83.5397L478.541 75.0001L485.08 67.3586L486.232 65.1323L486.832 64.6571L487.883 64.532L488.509 65.1824L492.826 66.8332L496.042 67.0334L498.219 66.448L506.378 64.1543L510.057 62.5934L513.683 63.0562L516.363 61.7556L521.794 57.2531L522.745 57.003L523.646 57.6934L524.839 59.9295L526.451 60.655L527.375 61.0802L528.251 63.0063L532.405 67.6838L532.868 68.2089L536.206 68.1841L538.386 68.159H540.138L541.69 68.7343L543.567 68.7468L547.623 68.0089L548.93 68.8844L550.807 71.5358L550.752 73.5118L551.525 74.0846L558.56 76.6384L562.379 74.5774L563.465 73.7119L566.941 70.8104L569.887 69.9975L573.015 67.9589L580.906 59.6544L583.959 53.9413L584.069 53.7012L584.134 53.6012L584.334 52.7256L584.685 51.0498L584.737 50.9197L585.31 49.399L586.562 46.1347L586.211 42.2676L586.572 40.144L585.911 38.1928L583.651 37.3425L584.277 36.2669H586.572L589.565 43.2957L589.117 47.0627L588.839 49.2489L588.739 50.1243L588.414 50.7121L588.031 51.4L588.864 51.8502L590.794 52.9258L594.602 53.5511L597.198 53.8013L598.602 53.5511L605.206 51.3374L608.91 50.8496L611.495 49.8742L623.225 44.2961L628.333 41.8449L632.244 39.0934L638.018 34.5909L642.463 30.4638L645.548 28.6253L647.625 28L649.502 28.1626L652.13 29.6583L656.835 33.0027L662.378 35.9668L664.118 36.3669L666.237 36.2168L670.552 36.9922L671 37.38L670.825 38.2429L669.496 39.3435L661.067 41.92L657.261 44.6213L655.033 48.1107L653.782 52.4255L653.256 53.7012L651.63 57.6534L651.742 58.4788L652.631 58.7414L653.985 57.0531L653.607 56.1025L653.807 55.6773L654.858 55.9775L655.459 56.8028L655.209 58.3187L654.107 60.8051L651.905 63.8441L649.605 67.0734L648.719 68.2841L645.899 74.0846L642.463 81.6162L640.846 86.3937L638.666 90.521L634.912 96.2991L629.932 100.776L628.756 104.979L626.904 106.955L626.178 108.531L623.125 111.882L617.494 119.336L616.445 120.512L615.091 123.289L611.212 128.391L609.786 130.467L608.885 133.319L606.207 135.895L604.881 138.522L600.379 143.224L599.553 147.301L599.775 148.427L599.918 149.303L599.175 150.803L598.459 151.291L598.199 151.479L596.947 151.256L594.602 154.706L594.32 155.181L594.392 156.056L595.07 156.807L592.145 159.683L591.041 161.359L590.691 161.334L590.794 161.832L585.423 169.889L581.006 179.694L581.031 179.869L581.106 180.419L581.231 181.47L581.669 181.795L582.007 182.02L582.505 184.321L584.134 186.845L583.809 188.048L580.731 193.476L579.579 198.254L579.504 201.881L579.166 202.731L575.475 207.571L574.849 210.686L574.474 212.539L574.324 217.259L574.997 221.891L574.526 223.615L573.248 225.181L572.697 227.394L570.92 228.595L568.418 232.422L567.489 232.722L564.881 235.394L563.365 235.749L562.762 236.337L563.11 237.225L562.939 237.875L562.687 238.213L560.294 241.647L559.043 243.418L558.56 244.103L557.131 246.154L556.83 247.78L556.78 248.055V248.255V251.652V251.732L556.805 252.683V253.208L556.853 254.309L557.531 265.067L557.504 268.564L557.031 269.967L557.156 275.698L557.999 280.835L557.756 288.024L558.417 291.504L559.934 294.63L563.713 295.056L567.266 295.946L570.67 300.308L571.398 300.384L571.894 300.428L572.65 298.933L575.6 300.428L576.351 301.371L576.226 301.859L577.677 301.934L578.954 300.531L579.054 299.158L580.315 299.28L581.556 300.456L582.582 303.335L584.559 305.886L587.362 308.313L589.164 311.579L590.428 313.015L589.465 314.891L589.177 315.464L587.488 315.742L586.186 314.081L584.985 313.588L584.51 314.016L584.407 318.918L583.781 320.131L583.108 320.097L582.682 319.169L583.286 316.892L583.258 314.891L583.025 314.391L582.715 313.741L581.832 312.963L580.756 312.715L577.955 314.366L577.452 315.464L577.955 317.443L577.677 318.356L575.9 321.245L576.226 321.482L577.052 326.693L577.903 328.424L579.732 330.445L579.106 331.387L580.605 335.402L581.756 337.015L583.386 337.218L584.309 336.903L584.86 336.1L584.797 334.777L585.285 334.402L587.095 336.228L587.24 336.49L587.72 337.641L587.262 338.204L585.085 337.804L584.069 338.104L583.443 340.43L584.059 342.609L584.935 344.057L587.095 345.583L587.866 347.159L589.765 347.484L591.041 348.579L592.818 348.807L594.77 347.849L597.298 348.459L598.424 348.709L598.982 349.66L599.475 353.937L599.525 356.263V356.339L598.301 359.515L599.075 360.688L598.624 362.754L598.274 362.989L597.521 361.566L595.538 360.766L595.018 360.966L594.287 362.962L595.173 365.463L596.524 367.795L597.298 368.045L600.233 366.394L600.649 366.544L602.881 367.394L604.298 371.509L606.735 375.224L606.305 376.299L602.551 375.786H602.503L600.852 374.198L599.25 374.173L598.356 374.973L597.073 376.197L596.372 376.299L595.273 375.496L593.977 375.874L592.725 376.719L592.202 377.75L592.771 381.777L591.767 383.153L591.289 384.979L585.989 385.454L583.443 387.655L582.708 387.83L581.231 387.378L580.68 389.481L578.879 389.851L577.452 391.385L574.627 396.885L570.545 399.487L566.966 408.542L566.263 411.14L566.238 411.893L563.062 415.37L561.51 418.072L560.785 421.473L561.335 425.376L561.127 427.527L560.059 430.101L558.73 431.019L558.908 434.13L558.282 435.256V436.256V436.544L559.408 439.133L559.771 442.037L561.21 445.011L563.32 446.687L562.739 447.537L563.76 450.536L563.11 454.941L563.487 455.992L565.968 459.744L566.916 461.993L566.991 463.171L565.665 466.398L565.299 467.273L564.864 467.248L564.616 465.209L563.365 464.919L561.648 465.497L561.127 465.972L560.584 467.913L559.133 468.173L557.456 470.212L556.28 470.925L555.354 471L550.699 467.273L549.075 463.571L547.363 461.32L544.893 458.693L544.392 458.431L543.266 457.805L539.022 457.117L538.396 457.49L538.286 457.543L536.334 460.307L535.333 460.77L532.405 460.514L531.096 460.394L528.724 459.784L527.425 458.894L524.529 455.192L522.319 453.316L517.539 450.864L512.009 449.939L510.084 450.289L508.855 450.914L507.003 453.038L504.801 453.19L503.567 454.191L502.474 454.441L500.822 454.191L499.943 454.579L497.618 456.865L496.267 457.443L495.123 457.18L493.817 455.967L492.488 455.442L489.933 455.266L489.282 454.441L487.608 452.385L486.832 452.24L485.206 453.816L483.807 452.89L482.528 453.293L480.418 453.113L478.276 453.941L475.673 452.84L475.205 452.668L472.968 448.188L471.266 446.212L464.434 441.309L460.232 440.033L458.88 439.233L455.7 437.682L448.302 435.729L447.519 435.706L446.322 436.506L443.487 435.581L439.833 434.655L436.752 434.305L434.628 432.692L432.926 429.002L431.474 427.474L429.845 426.676L429.497 421.674L427.845 415.695L426.404 411.766L425.968 410.542L425.042 408.767L423.418 407.216L422.014 404.887L420.212 400.062L419.039 399.024L418.373 396.132L415.87 391.52L409.354 382.242L405.074 376.174L394.736 365.691L389.305 362.592L386.452 360.391L382.998 359.835L382.573 358.965L382.295 358.377L379.47 356.709L378.669 356.238L371.869 353.662L368.033 351.733L365.33 351.586L360.525 350.31L357.672 349.585L351.065 348.474L344.934 349.26L339.528 348.509L330.821 348.634L329.14 349.185L327.115 351.498L326.539 351.961L326.489 352.011L326.464 352.024L323.236 351.636L322.488 351.561L320.308 351.661L318.957 352.161L316.078 351.886L314.377 351.011L312.074 350.51L309.221 347.534L308.678 345.833L307.427 343.707L302.837 339.655L301.115 338.979L296.791 338.154L293.505 338.354L292.616 338.879L289.2 337.844L286.948 337.703L284.896 336.355L282.693 333.076L280.992 331.475L278.94 331.097L277.498 330.4L271.632 326.067L269.104 325.337L266.927 320.722L264.8 317.393L263.173 315.792L261.621 315.517L260.595 314.791L256.216 310.064L252.237 307.687L251.461 306.284L249.158 303.76L245.48 301.259L243.92 301.009L243.087 300.884L243.19 302.097L242.727 302.66L242.359 302.134L242.026 302.26L241.548 303.285L240.875 302.184L240.584 301.734L240.272 301.534L239.573 301.081L236.195 300.221L233.745 301.359L232.116 301.282L229.388 299.233L225.934 299.008L224.758 297.53L223.031 296.779L220.606 294.33L218.652 291.554L214.645 287.949L212.795 287.089L211.569 285.523L208.316 284.197L205.886 281.696L204.787 281.043L200.44 280.798L195.703 274.52L193.703 273.539L192.074 273.231L189.804 273.567L189.521 273.169L187.644 266.966L185.317 262.908L183.264 261.213L180.859 257.035L178.162 253.658L177.183 253.358L176.039 252.233L175.359 252.032L174.706 252.883L174.162 252.758L172.979 249.831L169.928 245.879L168.724 245.191L164.923 244.704L162.117 245.179L161.795 244.043L159.64 244.876L156.018 243.053L153.884 242.652L150.755 242.878L148.228 242.152L145.675 242.452L143.651 244.303L140.522 244.228L138.793 244.729L138.08 244.354L136.726 239.526L135.617 237.775L135.014 236.824L133.763 235.574L132.711 233.097L129.843 230.321L128.109 227.77L124.055 224.343L122.278 223.367L120.023 223.54L117.643 222.782L114.515 223.717L109.888 222.117L107.285 221.636H98.4581L93.6582 221.766L92.0439 221.391L85.9901 222.489L77.2309 225.416L70.2486 227.785L68.5719 226.794L66.795 226.319L63.9921 222.99L62.0876 219.015L58.1835 212.862L56.6069 207.356L55.5332 205.883L54.5046 205.17L50.6981 202.534L50.2827 202.251L48.123 200.88L46.4463 200.355L43.841 200.055L40.8653 201.228L38.4879 200.692L38.08 199.777L37.7622 198.954L36.6109 198.429L32.7068 194.627L30.5546 191.075L29.2782 190.652L28.59 189.014L29.1531 187.498L29.003 186.748L27.6265 184.471L28.2972 182.395L28.1746 178.843L25.4492 171.664L22.8565 167.587L21.7453 165.811L21.2198 165.611L20.6442 166.137L19.2052 163.86Z" stroke="#95CCED" stroke-width="2" mask="url(#path-1-outside-1_11_2)"/>
<circle cx="208.5" cy="78.5" r="4.5" fill="white"/>
<path d="M217.242 61.66H221.22C221.88 61.66 222.474 61.738 223.002 61.894C223.542 62.05 223.998 62.278 224.37 62.578C224.754 62.878 225.048 63.244 225.252 63.676C225.456 64.096 225.558 64.582 225.558 65.134C225.558 65.782 225.438 66.34 225.198 66.808C224.958 67.276 224.628 67.666 224.208 67.978C223.8 68.278 223.32 68.506 222.768 68.662C222.216 68.806 221.628 68.878 221.004 68.878H219.708V73H217.242V61.66ZM219.708 66.988H220.716C221.028 66.988 221.322 66.964 221.598 66.916C221.886 66.856 222.132 66.76 222.336 66.628C222.552 66.484 222.72 66.304 222.84 66.088C222.96 65.86 223.02 65.578 223.02 65.242C223.02 64.654 222.822 64.222 222.426 63.946C222.03 63.67 221.526 63.532 220.914 63.532H219.708V66.988ZM231.03 68.572H233.91L233.388 67.06C233.22 66.592 233.064 66.124 232.92 65.656C232.776 65.176 232.638 64.696 232.506 64.216H232.47C232.338 64.672 232.194 65.14 232.038 65.62C231.882 66.088 231.72 66.568 231.552 67.06L231.03 68.572ZM231.246 61.66H233.802L237.996 73H235.386L234.504 70.39H230.472L229.59 73H227.016L231.246 61.66ZM241.233 61.66H243.699V71.056H248.271V73H241.233V61.66ZM251.453 61.66H258.833V63.568H253.919V66.16H258.365V68.05H253.919V71.092H258.887V73H251.453V61.66ZM262.551 61.66H266.853C267.489 61.66 268.047 61.756 268.527 61.948C269.019 62.128 269.427 62.38 269.751 62.704C270.075 63.016 270.315 63.388 270.471 63.82C270.639 64.24 270.723 64.696 270.723 65.188C270.723 65.644 270.651 66.052 270.507 66.412C270.375 66.76 270.201 67.066 269.985 67.33C269.781 67.582 269.547 67.798 269.283 67.978C269.031 68.146 268.785 68.284 268.545 68.392L271.317 73H268.491L266.313 68.824H264.999V73H262.551V61.66ZM264.999 66.934H265.971C266.619 66.934 267.147 66.802 267.555 66.538C267.975 66.274 268.185 65.836 268.185 65.224C268.185 64.684 268.017 64.27 267.681 63.982C267.357 63.682 266.877 63.532 266.241 63.532H264.999V66.934ZM275.355 61.66H278.469L280.089 66.826C280.161 67.054 280.233 67.3 280.305 67.564C280.389 67.828 280.467 68.092 280.539 68.356C280.611 68.62 280.677 68.878 280.737 69.13C280.797 69.382 280.845 69.616 280.881 69.832H280.953C280.989 69.64 281.037 69.418 281.097 69.166C281.157 68.902 281.223 68.632 281.295 68.356C281.367 68.08 281.439 67.81 281.511 67.546C281.583 67.282 281.649 67.042 281.709 66.826L283.275 61.66H286.389L287.235 73H284.913C284.841 71.752 284.769 70.504 284.697 69.256C284.625 68.008 284.577 66.748 284.553 65.476L284.535 64H284.481C284.325 64.66 284.151 65.35 283.959 66.07C283.779 66.79 283.605 67.42 283.437 67.96L281.835 73H279.927L278.289 67.942C278.085 67.294 277.893 66.61 277.713 65.89C277.533 65.17 277.389 64.54 277.281 64H277.227C277.227 64.432 277.221 64.888 277.209 65.368C277.197 65.836 277.179 66.304 277.155 66.772C277.143 67.24 277.125 67.702 277.101 68.158C277.089 68.602 277.071 69.01 277.047 69.382L276.831 73H274.545L275.355 61.66ZM296.559 61.462C297.363 61.462 298.107 61.594 298.791 61.858C299.475 62.122 300.063 62.506 300.555 63.01C301.047 63.502 301.431 64.114 301.707 64.846C301.995 65.578 302.139 66.412 302.139 67.348C302.139 68.26 301.995 69.076 301.707 69.796C301.419 70.516 301.023 71.128 300.519 71.632C300.015 72.136 299.415 72.526 298.719 72.802C298.035 73.066 297.291 73.198 296.487 73.198C295.683 73.198 294.939 73.072 294.255 72.82C293.571 72.556 292.983 72.178 292.491 71.686C291.999 71.182 291.609 70.57 291.321 69.85C291.045 69.118 290.907 68.284 290.907 67.348C290.907 66.436 291.051 65.62 291.339 64.9C291.627 64.168 292.023 63.55 292.527 63.046C293.031 62.53 293.625 62.14 294.309 61.876C295.005 61.6 295.755 61.462 296.559 61.462ZM293.517 67.348C293.517 68.02 293.595 68.608 293.751 69.112C293.919 69.604 294.141 70.018 294.417 70.354C294.693 70.678 295.011 70.924 295.371 71.092C295.743 71.248 296.139 71.326 296.559 71.326C296.967 71.326 297.351 71.248 297.711 71.092C298.083 70.924 298.401 70.678 298.665 70.354C298.929 70.018 299.139 69.604 299.295 69.112C299.451 68.608 299.529 68.02 299.529 67.348C299.529 66.652 299.445 66.052 299.277 65.548C299.121 65.044 298.905 64.63 298.629 64.306C298.353 63.97 298.029 63.724 297.657 63.568C297.297 63.412 296.907 63.334 296.487 63.334C296.067 63.334 295.677 63.418 295.317 63.586C294.957 63.754 294.645 64.006 294.381 64.342C294.117 64.666 293.907 65.08 293.751 65.584C293.595 66.088 293.517 66.676 293.517 67.348Z" fill="white"/>
<path d="M386.72 215.96C382.613 221.507 380.56 225.293 380.56 227.32C380.56 228.013 380.907 228.36 381.6 228.36C383.467 228.36 387.013 226.867 392.24 223.88C397.467 220.893 400.267 219.4 400.64 219.4C401.387 219.4 401.76 219.72 401.76 220.36V220.52C401.707 220.84 400.213 222.013 397.28 224.04C394.347 226.067 390.693 228.12 386.32 230.2C381.947 232.28 378.293 233.32 375.36 233.32C370.72 233.32 368.4 230.627 368.4 225.24C368.4 220.387 370.987 214.787 376.16 208.44C381.387 202.04 387.493 196.6 394.48 192.12C401.467 187.64 407.413 185.4 412.32 185.4C414.453 185.4 416 186.013 416.96 187.24C417.92 188.467 418.4 189.613 418.4 190.68C418.4 192.813 417.067 195.293 414.4 198.12C411.787 200.947 408.693 203.587 405.12 206.04C401.547 208.44 398.027 210.573 394.56 212.44C391.147 214.253 388.533 215.427 386.72 215.96ZM412 191.8C411.147 191.8 409.093 193.187 405.84 195.96C402.64 198.733 399.653 201.533 396.88 204.36L392.72 208.52C392.293 208.947 392.08 209.293 392.08 209.56C392.08 209.773 392.32 209.88 392.8 209.88C394.933 209.88 398.72 207.347 404.16 202.28C409.6 197.213 412.32 193.827 412.32 192.12C412.32 191.907 412.213 191.8 412 191.8Z" fill="white"/>
<path d="M392.88 231C392.88 232.173 393.28 233.133 394.08 233.88C394.88 234.68 395.92 235.08 397.2 235.08C398.48 235.08 400.667 233.533 403.76 230.44C406.853 227.347 409.6 224.12 412 220.76C414.4 217.4 415.6 215.267 415.6 214.36C415.6 211.533 414.4 210.12 412 210.12C408.16 210.813 404 213.533 399.52 218.28C395.093 223.027 392.88 227.267 392.88 231ZM417.04 207.56C416.133 207.56 415.413 207.24 414.88 206.6C414.347 205.96 414.027 205.32 413.92 204.68L413.84 203.8C414.107 201.24 415.253 199.293 417.28 197.96C419.307 196.627 421.067 195.96 422.56 195.96C424.747 195.96 425.84 197.053 425.84 199.24C425.84 200.627 425.013 202.307 423.36 204.28C421.707 206.2 419.6 207.293 417.04 207.56ZM434.942 229.8C434.942 230.067 435.129 230.253 435.502 230.36C435.875 230.36 437.155 229.613 439.342 228.12C441.582 226.573 442.835 225.72 443.102 225.56C443.422 225.4 443.715 225.32 443.982 225.32C444.729 225.32 445.102 225.693 445.102 226.44C445.102 227.133 443.209 228.707 439.422 231.16C435.689 233.613 433.049 234.84 431.502 234.84C430.862 234.84 430.169 234.573 429.422 234.04C428.729 233.507 428.382 232.893 428.382 232.2C428.382 231.453 428.569 230.653 428.942 229.8C429.315 228.947 429.502 228.387 429.502 228.12C429.502 227.8 429.422 227.64 429.262 227.64C429.102 227.64 428.942 227.693 428.782 227.8C423.609 231.693 419.795 233.64 417.342 233.64C415.955 233.64 414.862 233.133 414.062 232.12C413.262 231.107 412.782 230.093 412.622 229.08L412.462 227.56C412.462 225.8 413.129 223.773 414.462 221.48C415.849 219.133 417.635 216.92 419.822 214.84C422.062 212.707 424.782 210.92 427.982 209.48C431.235 208.04 434.542 207.32 437.902 207.32C439.715 207.32 441.395 207.8 442.942 208.76C444.542 209.72 445.342 210.84 445.342 212.12C445.342 213.4 444.089 214.173 441.582 214.44C439.715 214.867 436.622 216.413 432.302 219.08C428.035 221.693 425.902 223.693 425.902 225.08C425.902 225.667 426.195 225.96 426.782 225.96C427.849 225.96 430.355 224.44 434.302 221.4C438.302 218.36 440.702 216.84 441.502 216.84C442.302 216.84 442.702 217.32 442.702 218.28C442.702 218.973 442.435 219.64 441.902 220.28C441.422 220.867 441.075 221.293 440.862 221.56C440.435 222.093 439.342 223.293 437.582 225.16C435.822 226.973 434.942 228.52 434.942 229.8Z" fill="white"/>
<path d="M346.88 231C346.88 232.173 347.28 233.133 348.08 233.88C348.88 234.68 349.92 235.08 351.2 235.08C352.48 235.08 354.667 233.533 357.76 230.44C360.853 227.347 363.6 224.12 366 220.76C368.4 217.4 369.6 215.267 369.6 214.36C369.6 211.533 368.4 210.12 366 210.12C362.16 210.813 358 213.533 353.52 218.28C349.093 223.027 346.88 227.267 346.88 231ZM371.04 207.56C370.133 207.56 369.413 207.24 368.88 206.6C368.347 205.96 368.027 205.32 367.92 204.68L367.84 203.8C368.107 201.24 369.253 199.293 371.28 197.96C373.307 196.627 375.067 195.96 376.56 195.96C378.747 195.96 379.84 197.053 379.84 199.24C379.84 200.627 379.013 202.307 377.36 204.28C375.707 206.2 373.6 207.293 371.04 207.56Z" fill="white"/>
<path d="M353.32 220.36C353.267 220.893 351.533 222.307 348.12 224.6C344.707 226.84 340.76 229.027 336.28 231.16C331.8 233.293 328.573 234.36 326.6 234.36C324.68 234.36 323.027 233.773 321.64 232.6C320.253 231.373 319.56 229.987 319.56 228.44C319.56 225.24 320.973 221.96 323.8 218.6C326.68 215.187 329.987 212.44 333.72 210.36C337.507 208.227 340.707 207.16 343.32 207.16C345.987 207.16 347.987 207.507 349.32 208.2C350.653 208.84 351.32 210.067 351.32 211.88C351.32 213.693 350.147 215.8 347.8 218.2C345.507 220.547 343.533 221.72 341.88 221.72C340.813 221.72 340.28 221.4 340.28 220.76C340.28 220.333 340.547 219.96 341.08 219.64C341.667 219.32 342.6 218.573 343.88 217.4C345.16 216.227 345.8 215.427 345.8 215C345.8 214.84 345.64 214.76 345.32 214.76C343.453 214.76 340.813 216.467 337.4 219.88C333.987 223.293 332.28 225.853 332.28 227.56C332.28 228.413 332.733 228.84 333.64 228.84C334.6 228.84 336.12 228.307 338.2 227.24C340.28 226.12 342.84 224.627 345.88 222.76C348.92 220.893 350.653 219.853 351.08 219.64C351.56 219.373 351.933 219.24 352.2 219.24C352.947 219.24 353.32 219.613 353.32 220.36Z" fill="white"/>
<path d="M284.48 207L267.6 206.68C264.347 206.627 261.653 205.747 259.52 204.04C257.387 202.333 256.32 200.173 256.32 197.56C256.32 193.987 258.933 190.44 264.16 186.92C269.44 183.347 275.68 180.547 282.88 178.52C290.133 176.44 296.373 175.4 301.6 175.4C311.947 175.4 317.12 178.04 317.12 183.32C317.12 185.027 315.28 188.2 311.6 192.84C307.973 197.48 305.253 199.8 303.44 199.8C303.067 199.8 302.693 199.64 302.32 199.32C302 198.947 301.84 198.493 301.84 197.96C301.84 197.427 302.48 196.467 303.76 195.08C305.093 193.64 305.76 192.6 305.76 191.96C305.76 191.48 305.147 191.24 303.92 191.24C300.613 191.24 295.387 192.493 288.24 195C281.093 197.453 277.52 199.4 277.52 200.84C277.52 201.427 278.107 201.8 279.28 201.96C280.453 202.067 282.533 202.173 285.52 202.28C288.507 202.333 291.12 202.52 293.36 202.84C295.6 203.16 297.413 203.64 298.8 204.28C300.24 204.867 301.333 205.507 302.08 206.2C302.88 206.893 303.52 207.693 304 208.6C304.693 210.04 305.04 211.48 305.04 212.92C305.04 216.76 302.4 220.627 297.12 224.52C291.893 228.413 285.573 231.533 278.16 233.88C270.8 236.227 264.24 237.4 258.48 237.4C246.533 237.4 240.56 233.64 240.56 226.12C240.56 222.653 243.307 219.8 248.8 217.56C250.56 219.107 254.427 219.88 260.4 219.88C264.773 219.613 268.8 219 272.48 218.04C276.16 217.027 279.04 215.933 281.12 214.76C283.2 213.533 284.827 212.387 286 211.32C287.173 210.2 287.84 209.267 288 208.52C287.893 207.507 286.72 207 284.48 207ZM300.989 231C300.989 232.173 301.389 233.133 302.189 233.88C302.989 234.68 304.029 235.08 305.309 235.08C306.589 235.08 308.776 233.533 311.869 230.44C314.963 227.347 317.709 224.12 320.109 220.76C322.509 217.4 323.709 215.267 323.709 214.36C323.709 211.533 322.509 210.12 320.109 210.12C316.269 210.813 312.109 213.533 307.629 218.28C303.203 223.027 300.989 227.267 300.989 231ZM325.149 207.56C324.243 207.56 323.523 207.24 322.989 206.6C322.456 205.96 322.136 205.32 322.029 204.68L321.949 203.8C322.216 201.24 323.363 199.293 325.389 197.96C327.416 196.627 329.176 195.96 330.669 195.96C332.856 195.96 333.949 197.053 333.949 199.24C333.949 200.627 333.123 202.307 331.469 204.28C329.816 206.2 327.709 207.293 325.149 207.56Z" fill="white"/>
</svg>
