<svg width="687" height="494" viewBox="0 0 687 494" fill="none" xmlns="http://www.w3.org/2000/svg">
<g clip-path="url(#clip0_11_2)">
<mask id="path-1-outside-1_11_2" maskUnits="userSpaceOnUse" x="17" y="26" width="656" height="447" fill="black">
<rect fill="white" x="17" y="26" width="656" height="447"/>
<path d="M19.2052 163.86L19.1927 163.335L19 162.635L19.1676 162.284L19.1427 161.396L20.6192 160.609L21.8455 159.058L22.8966 160.108L23.4721 159.658L24.4732 158.895L25.9498 156.982L27.3012 153.475L26.5504 151.679L26.7506 150.853L28.6275 148.977L28.9029 146.751L30.6297 143.775L30.6046 141.949L29.4784 140.323L27.9018 139.612L27.5264 138.259L26.8758 137.571L27.1335 135.965L25.8747 134.97L25.7245 133.869L27.4013 130.555L31.906 121.563L33.0572 118.248L32.9571 117.205L32.6568 114.922L33.4826 113.233L35.3696 111.232L35.5348 109.531L35.3596 106.83L35.3096 105.779L34.5538 105.016L32.4065 104.916L32.867 103.403L34.5538 103.853L36.5609 103.703L37.6119 103.178L39.7142 100.076L41.5912 99.2006L42.9676 97.0745L44.5192 95.6237L46.1959 92.0218L47.097 90.9963L48.7486 90.1708L50.0725 90.1958L55.4332 91.2589L58.6089 90.3709L62.3154 88.645L63.6667 87.6444L65.5037 85.093L67.2204 83.8924L67.4682 83.3321L66.7425 81.7413L66.9427 79.7126L69.2451 78.537L70.5964 78.4345L73.5246 80.3905L75.2264 80.4405L76.5602 79.9653L79.2081 77.3139L80.3592 75.1001L79.8937 74.1371L80.4168 72.8616L81.6681 71.7109L82.0059 70.7228L81.2326 69.6097L80.4068 68.4291L77.4786 62.2308L77.3311 61.1802L78.1795 59.3542L79.0553 58.5037L80.4068 58.0036L81.2827 58.2036L81.7331 58.9291L80.8573 59.6544L80.8322 60.3272L81.8333 61.2052L86.7759 61.0051L87.6118 60.4023L88.215 60.6049L88.5503 63.8817L88.1899 67.1334L88.8406 67.7587L90.5925 68.0215L91.6436 70.5852L92.7447 71.5832L93.12 72.9365L92.7197 75.2627L93.2427 78.9148L97.1243 86.7189L99.4992 87.5069L100.48 88.5699L101.479 91.7466L102.157 92.2469L103.106 92.3219L103.609 93.1223L106.059 93.7477L106.784 95.5987L107.988 95.7362L109.062 94.8483L109.637 94.9109L110.263 95.4211L110.238 97.1495L110.638 98.2376L111.542 98.9505L115.694 101.202L118.321 101.452L118.624 101.077L120.549 100.947L125.704 99.6508L131.237 97.4997L139.418 91.9717L144.499 88.72L146.111 88.4398L148.03 87.3943L148.926 86.3188L150.38 83.3321L149.864 79.3399L147.102 72.6364L145.85 71.6109L145.925 71.1106L147.027 70.7103L147.978 69.8098L149.381 69.6598L149.855 67.5836L150.633 66.5806L152.757 65.3299L151.731 63.4064L151.706 62.3058L152.883 60.855L154.87 58.3787L156.789 57.2005L160.065 56.7654L161.992 57.6934L163.519 59.2042L164.567 59.4668L166.234 58.3037L166.997 58.6289L168.724 61.9681L169.95 62.556L172.1 62.631L175.757 61.6805L179.838 59.5043L181.615 58.2036L182.764 56.5752L183.315 53.151L184.418 53.2134L185.392 54.2516L186.443 54.5667L187.894 54.0464L189.371 54.2641L190.072 54.0013L190.922 52.4255L192.049 52.1504L194.494 50.1243L196.028 49.599L196.653 49.669L197.982 48.4984H198.666L199.682 50.4996L200.733 50.9472L201.691 51.3374L201.609 53.6387V53.8013L203.486 55.9024L204.194 56.7028L206.614 56.5277L207.267 56.903L209.041 60.4023L209.166 62.9812L210.265 65.9077L210.618 68.0589L209.825 71.3107L209.817 71.5358L209.667 73.737L210.418 76.1508L212.195 78.1894L217.6 81.5886L221.68 81.7663L223.932 82.8118L228.136 82.4416L231.968 81.1909L233.702 80.6908L236.933 78.5145L237.924 76.4534L239.949 77.489L242.551 78.2268L243.295 78.9398L243.377 80.9158L244.428 83.1295L243.978 86.2186L244.779 87.6444L244.003 89.9706L244.103 91.2463L245.229 92.4469L246.581 94.1229L249.681 98.0376L251.411 99.4508L254.687 100.974L256.616 101.327L261.073 105.279L264.65 106.129L265.676 107.33L269.677 109.656L273.586 110.382L275.098 110.429L275.161 110.482L276.349 111.157L279.087 111.472V111.982L277.888 112.558L278.214 113.556L278.437 113.608L282.168 114.534L284.445 116.01L285.839 116.172L292.616 115.159L296.508 114.559L300.913 112.983L303.44 112.808L307.319 111.832L310.022 110.507L319.657 104.801L323.639 101.877L324.838 100.801L326.442 100.114L328.066 100.176L330.969 98.6253L332.869 99.3507L334.745 99.4258L336.575 98.5003L338.877 98.2001L340.304 97.0895L341.58 97.1244L344.859 98.6629L346.185 100.001L349.513 101.527L351.19 102.327L355.495 102.225L358.498 103.428L360.775 103.328L363.828 102.515L364.607 101.877L365.455 99.5759L366.606 99.851L370.711 102.703L373.849 102.752L374.364 103.203L377.746 103.403L380.171 104.593L382.673 104.754L384.15 105.729L385.424 105.904L388.479 105.949L390.707 105.104L392.158 105.324L395.937 106.267L397.336 105.844L400.917 105.679L406.28 103.475L411.879 104.176L417.635 101.572L421.689 98.4727L424.492 96.7493L425.593 96.8869L427.645 98.5252L432.951 98.8504L434.602 98.4252H437.33L443.239 96.4991L449.761 91.8842L455.952 92.0218L459.378 89.3829L462.582 89.4204L464.086 88.7951L468.763 85.0681L472.077 83.5397L478.541 75.0001L485.08 67.3586L486.232 65.1323L486.832 64.6571L487.883 64.532L488.509 65.1824L492.826 66.8332L496.042 67.0334L498.219 66.448L506.378 64.1543L510.057 62.5934L513.683 63.0562L516.363 61.7556L521.794 57.2531L522.745 57.003L523.646 57.6934L524.839 59.9295L526.451 60.655L527.375 61.0802L528.251 63.0063L532.405 67.6838L532.868 68.2089L536.206 68.1841L538.386 68.159H540.138L541.69 68.7343L543.567 68.7468L547.623 68.0089L548.93 68.8844L550.807 71.5358L550.752 73.5118L551.525 74.0846L558.56 76.6384L562.379 74.5774L563.465 73.7119L566.941 70.8104L569.887 69.9975L573.015 67.9589L580.906 59.6544L583.959 53.9413L584.069 53.7012L584.134 53.6012L584.334 52.7256L584.685 51.0498L584.737 50.9197L585.31 49.399L586.562 46.1347L586.211 42.2676L586.572 40.144L585.911 38.1928L583.651 37.3425L584.277 36.2669H586.572L589.565 43.2957L589.117 47.0627L588.839 49.2489L588.739 50.1243L588.414 50.7121L588.031 51.4L588.864 51.8502L590.794 52.9258L594.602 53.5511L597.198 53.8013L598.602 53.5511L605.206 51.3374L608.91 50.8496L611.495 49.8742L623.225 44.2961L628.333 41.8449L632.244 39.0934L638.018 34.5909L642.463 30.4638L645.548 28.6253L647.625 28L649.502 28.1626L652.13 29.6583L656.835 33.0027L662.378 35.9668L664.118 36.3669L666.237 36.2168L670.552 36.9922L671 37.38L670.825 38.2429L669.496 39.3435L661.067 41.92L657.261 44.6213L655.033 48.1107L653.782 52.4255L653.256 53.7012L651.63 57.6534L651.742 58.4788L652.631 58.7414L653.985 57.0531L653.607 56.1025L653.807 55.6773L654.858 55.9775L655.459 56.8028L655.209 58.3187L654.107 60.8051L651.905 63.8441L649.605 67.0734L648.719 68.2841L645.899 74.0846L642.463 81.6162L640.846 86.3937L638.666 90.521L634.912 96.2991L629.932 100.776L628.756 104.979L626.904 106.955L626.178 108.531L623.125 111.882L617.494 119.336L616.445 120.512L615.091 123.289L611.212 128.391L609.786 130.467L608.885 133.319L606.207 135.895L604.881 138.522L600.379 143.224L599.553 147.301L599.775 148.427L599.918 149.303L599.175 150.803L598.459 151.291L598.199 151.479L596.947 151.256L594.602 154.706L594.32 155.181L594.392 156.056L595.07 156.807L592.145 159.683L591.041 161.359L590.691 161.334L590.794 161.832L585.423 169.889L581.006 179.694L581.031 179.869L581.106 180.419L581.231 181.47L581.669 181.795L582.007 182.02L582.505 184.321L584.134 186.845L583.809 188.048L580.731 193.476L579.579 198.254L579.504 201.881L579.166 202.731L575.475 207.571L574.849 210.686L574.474 212.539L574.324 217.259L574.997 221.891L574.526 223.615L573.248 225.181L572.697 227.394L570.92 228.595L568.418 232.422L567.489 232.722L564.881 235.394L563.365 235.749L562.762 236.337L563.11 237.225L562.939 237.875L562.687 238.213L560.294 241.647L559.043 243.418L558.56 244.103L557.131 246.154L556.83 247.78L556.78 248.055V248.255V251.652V251.732L556.805 252.683V253.208L556.853 254.309L557.531 265.067L557.504 268.564L557.031 269.967L557.156 275.698L557.999 280.835L557.756 288.024L558.417 291.504L559.934 294.63L563.713 295.056L567.266 295.946L570.67 300.308L571.398 300.384L571.894 300.428L572.65 298.933L575.6 300.428L576.351 301.371L576.226 301.859L577.677 301.934L578.954 300.531L579.054 299.158L580.315 299.28L581.556 300.456L582.582 303.335L584.559 305.886L587.362 308.313L589.164 311.579L590.428 313.015L589.465 314.891L589.177 315.464L587.488 315.742L586.186 314.081L584.985 313.588L584.51 314.016L584.407 318.918L583.781 320.131L583.108 320.097L582.682 319.169L583.286 316.892L583.258 314.891L583.025 314.391L582.715 313.741L581.832 312.963L580.756 312.715L577.955 314.366L577.452 315.464L577.955 317.443L577.677 318.356L575.9 321.245L576.226 321.482L577.052 326.693L577.903 328.424L579.732 330.445L579.106 331.387L580.605 335.402L581.756 337.015L583.386 337.218L584.309 336.903L584.86 336.1L584.797 334.777L585.285 334.402L587.095 336.228L587.24 336.49L587.72 337.641L587.262 338.204L585.085 337.804L584.069 338.104L583.443 340.43L584.059 342.609L584.935 344.057L587.095 345.583L587.866 347.159L589.765 347.484L591.041 348.579L592.818 348.807L594.77 347.849L597.298 348.459L598.424 348.709L598.982 349.66L599.475 353.937L599.525 356.263V356.339L598.301 359.515L599.075 360.688L598.624 362.754L598.274 362.989L597.521 361.566L595.538 360.766L595.018 360.966L594.287 362.962L595.173 365.463L596.524 367.795L597.298 368.045L600.233 366.394L600.649 366.544L602.881 367.394L604.298 371.509L606.735 375.224L606.305 376.299L602.551 375.786H602.503L600.852 374.198L599.25 374.173L598.356 374.973L597.073 376.197L596.372 376.299L595.273 375.496L593.977 375.874L592.725 376.719L592.202 377.75L592.771 381.777L591.767 383.153L591.289 384.979L585.989 385.454L583.443 387.655L582.708 387.83L581.231 387.378L580.68 389.481L578.879 389.851L577.452 391.385L574.627 396.885L570.545 399.487L566.966 408.542L566.263 411.14L566.238 411.893L563.062 415.37L561.51 418.072L560.785 421.473L561.335 425.376L561.127 427.527L560.059 430.101L558.73 431.019L558.908 434.13L558.282 435.256V436.256V436.544L559.408 439.133L559.771 442.037L561.21 445.011L563.32 446.687L562.739 447.537L563.76 450.536L563.11 454.941L563.487 455.992L565.968 459.744L566.916 461.993L566.991 463.171L565.665 466.398L565.299 467.273L564.864 467.248L564.616 465.209L563.365 464.919L561.648 465.497L561.127 465.972L560.584 467.913L559.133 468.173L557.456 470.212L556.28 470.925L555.354 471L550.699 467.273L549.075 463.571L547.363 461.32L544.893 458.693L544.392 458.431L543.266 457.805L539.022 457.117L538.396 457.49L538.286 457.543L536.334 460.307L535.333 460.77L532.405 460.514L531.096 460.394L528.724 459.784L527.425 458.894L524.529 455.192L522.319 453.316L517.539 450.864L512.009 449.939L510.084 450.289L508.855 450.914L507.003 453.038L504.801 453.19L503.567 454.191L502.474 454.441L500.822 454.191L499.943 454.579L497.618 456.865L496.267 457.443L495.123 457.18L493.817 455.967L492.488 455.442L489.933 455.266L489.282 454.441L487.608 452.385L486.832 452.24L485.206 453.816L483.807 452.89L482.528 453.293L480.418 453.113L478.276 453.941L475.673 452.84L475.205 452.668L472.968 448.188L471.266 446.212L464.434 441.309L460.232 440.033L458.88 439.233L455.7 437.682L448.302 435.729L447.519 435.706L446.322 436.506L443.487 435.581L439.833 434.655L436.752 434.305L434.628 432.692L432.926 429.002L431.474 427.474L429.845 426.676L429.497 421.674L427.845 415.695L426.404 411.766L425.968 410.542L425.042 408.767L423.418 407.216L422.014 404.887L420.212 400.062L419.039 399.024L418.373 396.132L415.87 391.52L409.354 382.242L405.074 376.174L394.736 365.691L389.305 362.592L386.452 360.391L382.998 359.835L382.573 358.965L382.295 358.377L379.47 356.709L378.669 356.238L371.869 353.662L368.033 351.733L365.33 351.586L360.525 350.31L357.672 349.585L351.065 348.474L344.934 349.26L339.528 348.509L330.821 348.634L329.14 349.185L327.115 351.498L326.539 351.961L326.489 352.011L326.464 352.024L323.236 351.636L322.488 351.561L320.308 351.661L318.957 352.161L316.078 351.886L314.377 351.011L312.074 350.51L309.221 347.534L308.678 345.833L307.427 343.707L302.837 339.655L301.115 338.979L296.791 338.154L293.505 338.354L292.616 338.879L289.2 337.844L286.948 337.703L284.896 336.355L282.693 333.076L280.992 331.475L278.94 331.097L277.498 330.4L271.632 326.067L269.104 325.337L266.927 320.722L264.8 317.393L263.173 315.792L261.621 315.517L260.595 314.791L256.216 310.064L252.237 307.687L251.461 306.284L249.158 303.76L245.48 301.259L243.92 301.009L243.087 300.884L243.19 302.097L242.727 302.66L242.359 302.134L242.026 302.26L241.548 303.285L240.875 302.184L240.584 301.734L240.272 301.534L239.573 301.081L236.195 300.221L233.745 301.359L232.116 301.282L229.388 299.233L225.934 299.008L224.758 297.53L223.031 296.779L220.606 294.33L218.652 291.554L214.645 287.949L212.795 287.089L211.569 285.523L208.316 284.197L205.886 281.696L204.787 281.043L200.44 280.798L195.703 274.52L193.703 273.539L192.074 273.231L189.804 273.567L189.521 273.169L187.644 266.966L185.317 262.908L183.264 261.213L180.859 257.035L178.162 253.658L177.183 253.358L176.039 252.233L175.359 252.032L174.706 252.883L174.162 252.758L172.979 249.831L169.928 245.879L168.724 245.191L164.923 244.704L162.117 245.179L161.795 244.043L159.64 244.876L156.018 243.053L153.884 242.652L150.755 242.878L148.228 242.152L145.675 242.452L143.651 244.303L140.522 244.228L138.793 244.729L138.08 244.354L136.726 239.526L135.617 237.775L135.014 236.824L133.763 235.574L132.711 233.097L129.843 230.321L128.109 227.77L124.055 224.343L122.278 223.367L120.023 223.54L117.643 222.782L114.515 223.717L109.888 222.117L107.285 221.636H98.4581L93.6582 221.766L92.0439 221.391L85.9901 222.489L77.2309 225.416L70.2486 227.785L68.5719 226.794L66.795 226.319L63.9921 222.99L62.0876 219.015L58.1835 212.862L56.6069 207.356L55.5332 205.883L54.5046 205.17L50.6981 202.534L50.2827 202.251L48.123 200.88L46.4463 200.355L43.841 200.055L40.8653 201.228L38.4879 200.692L38.08 199.777L37.7622 198.954L36.6109 198.429L32.7068 194.627L30.5546 191.075L29.2782 190.652L28.59 189.014L29.1531 187.498L29.003 186.748L27.6265 184.471L28.2972 182.395L28.1746 178.843L25.4492 171.664L22.8565 167.587L21.7453 165.811L21.2198 165.611L20.6442 166.137L19.2052 163.86Z"/>
</mask>
<path d="M19.2052 163.86L19.1927 163.335L19 162.635L19.1676 162.284L19.1427 161.396L20.6192 160.609L21.8455 159.058L22.8966 160.108L23.4721 159.658L24.4732 158.895L25.9498 156.982L27.3012 153.475L26.5504 151.679L26.7506 150.853L28.6275 148.977L28.9029 146.751L30.6297 143.775L30.6046 141.949L29.4784 140.323L27.9018 139.612L27.5264 138.259L26.8758 137.571L27.1335 135.965L25.8747 134.97L25.7245 133.869L27.4013 130.555L31.906 121.563L33.0572 118.248L32.9571 117.205L32.6568 114.922L33.4826 113.233L35.3696 111.232L35.5348 109.531L35.3596 106.83L35.3096 105.779L34.5538 105.016L32.4065 104.916L32.867 103.403L34.5538 103.853L36.5609 103.703L37.6119 103.178L39.7142 100.076L41.5912 99.2006L42.9676 97.0745L44.5192 95.6237L46.1959 92.0218L47.097 90.9963L48.7486 90.1708L50.0725 90.1958L55.4332 91.2589L58.6089 90.3709L62.3154 88.645L63.6667 87.6444L65.5037 85.093L67.2204 83.8924L67.4682 83.3321L66.7425 81.7413L66.9427 79.7126L69.2451 78.537L70.5964 78.4345L73.5246 80.3905L75.2264 80.4405L76.5602 79.9653L79.2081 77.3139L80.3592 75.1001L79.8937 74.1371L80.4168 72.8616L81.6681 71.7109L82.0059 70.7228L81.2326 69.6097L80.4068 68.4291L77.4786 62.2308L77.3311 61.1802L78.1795 59.3542L79.0553 58.5037L80.4068 58.0036L81.2827 58.2036L81.7331 58.9291L80.8573 59.6544L80.8322 60.3272L81.8333 61.2052L86.7759 61.0051L87.6118 60.4023L88.215 60.6049L88.5503 63.8817L88.1899 67.1334L88.8406 67.7587L90.5925 68.0215L91.6436 70.5852L92.7447 71.5832L93.12 72.9365L92.7197 75.2627L93.2427 78.9148L97.1243 86.7189L99.4992 87.5069L100.48 88.5699L101.479 91.7466L102.157 92.2469L103.106 92.3219L103.609 93.1223L106.059 93.7477L106.784 95.5987L107.988 95.7362L109.062 94.8483L109.637 94.9109L110.263 95.4211L110.238 97.1495L110.638 98.2376L111.542 98.9505L115.694 101.202L118.321 101.452L118.624 101.077L120.549 100.947L125.704 99.6508L131.237 97.4997L139.418 91.9717L144.499 88.72L146.111 88.4398L148.03 87.3943L148.926 86.3188L150.38 83.3321L149.864 79.3399L147.102 72.6364L145.85 71.6109L145.925 71.1106L147.027 70.7103L147.978 69.8098L149.381 69.6598L149.855 67.5836L150.633 66.5806L152.757 65.3299L151.731 63.4064L151.706 62.3058L152.883 60.855L154.87 58.3787L156.789 57.2005L160.065 56.7654L161.992 57.6934L163.519 59.2042L164.567 59.4668L166.234 58.3037L166.997 58.6289L168.724 61.9681L169.95 62.556L172.1 62.631L175.757 61.6805L179.838 59.5043L181.615 58.2036L182.764 56.5752L183.315 53.151L184.418 53.2134L185.392 54.2516L186.443 54.5667L187.894 54.0464L189.371 54.2641L190.072 54.0013L190.922 52.4255L192.049 52.1504L194.494 50.1243L196.028 49.599L196.653 49.669L197.982 48.4984H198.666L199.682 50.4996L200.733 50.9472L201.691 51.3374L201.609 53.6387V53.8013L203.486 55.9024L204.194 56.7028L206.614 56.5277L207.267 56.903L209.041 60.4023L209.166 62.9812L210.265 65.9077L210.618 68.0589L209.825 71.3107L209.817 71.5358L209.667 73.737L210.418 76.1508L212.195 78.1894L217.6 81.5886L221.68 81.7663L223.932 82.8118L228.136 82.4416L231.968 81.1909L233.702 80.6908L236.933 78.5145L237.924 76.4534L239.949 77.489L242.551 78.2268L243.295 78.9398L243.377 80.9158L244.428 83.1295L243.978 86.2186L244.779 87.6444L244.003 89.9706L244.103 91.2463L245.229 92.4469L246.581 94.1229L249.681 98.0376L251.411 99.4508L254.687 100.974L256.616 101.327L261.073 105.279L264.65 106.129L265.676 107.33L269.677 109.656L273.586 110.382L275.098 110.429L275.161 110.482L276.349 111.157L279.087 111.472V111.982L277.888 112.558L278.214 113.556L278.437 113.608L282.168 114.534L284.445 116.01L285.839 116.172L292.616 115.159L296.508 114.559L300.913 112.983L303.44 112.808L307.319 111.832L310.022 110.507L319.657 104.801L323.639 101.877L324.838 100.801L326.442 100.114L328.066 100.176L330.969 98.6253L332.869 99.3507L334.745 99.4258L336.575 98.5003L338.877 98.2001L340.304 97.0895L341.58 97.1244L344.859 98.6629L346.185 100.001L349.513 101.527L351.19 102.327L355.495 102.225L358.498 103.428L360.775 103.328L363.828 102.515L364.607 101.877L365.455 99.5759L366.606 99.851L370.711 102.703L373.849 102.752L374.364 103.203L377.746 103.403L380.171 104.593L382.673 104.754L384.15 105.729L385.424 105.904L388.479 105.949L390.707 105.104L392.158 105.324L395.937 106.267L397.336 105.844L400.917 105.679L406.28 103.475L411.879 104.176L417.635 101.572L421.689 98.4727L424.492 96.7493L425.593 96.8869L427.645 98.5252L432.951 98.8504L434.602 98.4252H437.33L443.239 96.4991L449.761 91.8842L455.952 92.0218L459.378 89.3829L462.582 89.4204L464.086 88.7951L468.763 85.0681L472.077 83.5397L478.541 75.0001L485.08 67.3586L486.232 65.1323L486.832 64.6571L487.883 64.532L488.509 65.1824L492.826 66.8332L496.042 67.0334L498.219 66.448L506.378 64.1543L510.057 62.5934L513.683 63.0562L516.363 61.7556L521.794 57.2531L522.745 57.003L523.646 57.6934L524.839 59.9295L526.451 60.655L527.375 61.0802L528.251 63.0063L532.405 67.6838L532.868 68.2089L536.206 68.1841L538.386 68.159H540.138L541.69 68.7343L543.567 68.7468L547.623 68.0089L548.93 68.8844L550.807 71.5358L550.752 73.5118L551.525 74.0846L558.56 76.6384L562.379 74.5774L563.465 73.7119L566.941 70.8104L569.887 69.9975L573.015 67.9589L580.906 59.6544L583.959 53.9413L584.069 53.7012L584.134 53.6012L584.334 52.7256L584.685 51.0498L584.737 50.9197L585.31 49.399L586.562 46.1347L586.211 42.2676L586.572 40.144L585.911 38.1928L583.651 37.3425L584.277 36.2669H586.572L589.565 43.2957L589.117 47.0627L588.839 49.2489L588.739 50.1243L588.414 50.7121L588.031 51.4L588.864 51.8502L590.794 52.9258L594.602 53.5511L597.198 53.8013L598.602 53.5511L605.206 51.3374L608.91 50.8496L611.495 49.8742L623.225 44.2961L628.333 41.8449L632.244 39.0934L638.018 34.5909L642.463 30.4638L645.548 28.6253L647.625 28L649.502 28.1626L652.13 29.6583L656.835 33.0027L662.378 35.9668L664.118 36.3669L666.237 36.2168L670.552 36.9922L671 37.38L670.825 38.2429L669.496 39.3435L661.067 41.92L657.261 44.6213L655.033 48.1107L653.782 52.4255L653.256 53.7012L651.63 57.6534L651.742 58.4788L652.631 58.7414L653.985 57.0531L653.607 56.1025L653.807 55.6773L654.858 55.9775L655.459 56.8028L655.209 58.3187L654.107 60.8051L651.905 63.8441L649.605 67.0734L648.719 68.2841L645.899 74.0846L642.463 81.6162L640.846 86.3937L638.666 90.521L634.912 96.2991L629.932 100.776L628.756 104.979L626.904 106.955L626.178 108.531L623.125 111.882L617.494 119.336L616.445 120.512L615.091 123.289L611.212 128.391L609.786 130.467L608.885 133.319L606.207 135.895L604.881 138.522L600.379 143.224L599.553 147.301L599.775 148.427L599.918 149.303L599.175 150.803L598.459 151.291L598.199 151.479L596.947 151.256L594.602 154.706L594.32 155.181L594.392 156.056L595.07 156.807L592.145 159.683L591.041 161.359L590.691 161.334L590.794 161.832L585.423 169.889L581.006 179.694L581.031 179.869L581.106 180.419L581.231 181.47L581.669 181.795L582.007 182.02L582.505 184.321L584.134 186.845L583.809 188.048L580.731 193.476L579.579 198.254L579.504 201.881L579.166 202.731L575.475 207.571L574.849 210.686L574.474 212.539L574.324 217.259L574.997 221.891L574.526 223.615L573.248 225.181L572.697 227.394L570.92 228.595L568.418 232.422L567.489 232.722L564.881 235.394L563.365 235.749L562.762 236.337L563.11 237.225L562.939 237.875L562.687 238.213L560.294 241.647L559.043 243.418L558.56 244.103L557.131 246.154L556.83 247.78L556.78 248.055V248.255V251.652V251.732L556.805 252.683V253.208L556.853 254.309L557.531 265.067L557.504 268.564L557.031 269.967L557.156 275.698L557.999 280.835L557.756 288.024L558.417 291.504L559.934 294.63L563.713 295.056L567.266 295.946L570.67 300.308L571.398 300.384L571.894 300.428L572.65 298.933L575.6 300.428L576.351 301.371L576.226 301.859L577.677 301.934L578.954 300.531L579.054 299.158L580.315 299.28L581.556 300.456L582.582 303.335L584.559 305.886L587.362 308.313L589.164 311.579L590.428 313.015L589.465 314.891L589.177 315.464L587.488 315.742L586.186 314.081L584.985 313.588L584.51 314.016L584.407 318.918L583.781 320.131L583.108 320.097L582.682 319.169L583.286 316.892L583.258 314.891L583.025 314.391L582.715 313.741L581.832 312.963L580.756 312.715L577.955 314.366L577.452 315.464L577.955 317.443L577.677 318.356L575.9 321.245L576.226 321.482L577.052 326.693L577.903 328.424L579.732 330.445L579.106 331.387L580.605 335.402L581.756 337.015L583.386 337.218L584.309 336.903L584.86 336.1L584.797 334.777L585.285 334.402L587.095 336.228L587.24 336.49L587.72 337.641L587.262 338.204L585.085 337.804L584.069 338.104L583.443 340.43L584.059 342.609L584.935 344.057L587.095 345.583L587.866 347.159L589.765 347.484L591.041 348.579L592.818 348.807L594.77 347.849L597.298 348.459L598.424 348.709L598.982 349.66L599.475 353.937L599.525 356.263V356.339L598.301 359.515L599.075 360.688L598.624 362.754L598.274 362.989L597.521 361.566L595.538 360.766L595.018 360.966L594.287 362.962L595.173 365.463L596.524 367.795L597.298 368.045L600.233 366.394L600.649 366.544L602.881 367.394L604.298 371.509L606.735 375.224L606.305 376.299L602.551 375.786H602.503L600.852 374.198L599.25 374.173L598.356 374.973L597.073 376.197L596.372 376.299L595.273 375.496L593.977 375.874L592.725 376.719L592.202 377.75L592.771 381.777L591.767 383.153L591.289 384.979L585.989 385.454L583.443 387.655L582.708 387.83L581.231 387.378L580.68 389.481L578.879 389.851L577.452 391.385L574.627 396.885L570.545 399.487L566.966 408.542L566.263 411.14L566.238 411.893L563.062 415.37L561.51 418.072L560.785 421.473L561.335 425.376L561.127 427.527L560.059 430.101L558.73 431.019L558.908 434.13L558.282 435.256V436.256V436.544L559.408 439.133L559.771 442.037L561.21 445.011L563.32 446.687L562.739 447.537L563.76 450.536L563.11 454.941L563.487 455.992L565.968 459.744L566.916 461.993L566.991 463.171L565.665 466.398L565.299 467.273L564.864 467.248L564.616 465.209L563.365 464.919L561.648 465.497L561.127 465.972L560.584 467.913L559.133 468.173L557.456 470.212L556.28 470.925L555.354 471L550.699 467.273L549.075 463.571L547.363 461.32L544.893 458.693L544.392 458.431L543.266 457.805L539.022 457.117L538.396 457.49L538.286 457.543L536.334 460.307L535.333 460.77L532.405 460.514L531.096 460.394L528.724 459.784L527.425 458.894L524.529 455.192L522.319 453.316L517.539 450.864L512.009 449.939L510.084 450.289L508.855 450.914L507.003 453.038L504.801 453.19L503.567 454.191L502.474 454.441L500.822 454.191L499.943 454.579L497.618 456.865L496.267 457.443L495.123 457.18L493.817 455.967L492.488 455.442L489.933 455.266L489.282 454.441L487.608 452.385L486.832 452.24L485.206 453.816L483.807 452.89L482.528 453.293L480.418 453.113L478.276 453.941L475.673 452.84L475.205 452.668L472.968 448.188L471.266 446.212L464.434 441.309L460.232 440.033L458.88 439.233L455.7 437.682L448.302 435.729L447.519 435.706L446.322 436.506L443.487 435.581L439.833 434.655L436.752 434.305L434.628 432.692L432.926 429.002L431.474 427.474L429.845 426.676L429.497 421.674L427.845 415.695L426.404 411.766L425.968 410.542L425.042 408.767L423.418 407.216L422.014 404.887L420.212 400.062L419.039 399.024L418.373 396.132L415.87 391.52L409.354 382.242L405.074 376.174L394.736 365.691L389.305 362.592L386.452 360.391L382.998 359.835L382.573 358.965L382.295 358.377L379.47 356.709L378.669 356.238L371.869 353.662L368.033 351.733L365.33 351.586L360.525 350.31L357.672 349.585L351.065 348.474L344.934 349.26L339.528 348.509L330.821 348.634L329.14 349.185L327.115 351.498L326.539 351.961L326.489 352.011L326.464 352.024L323.236 351.636L322.488 351.561L320.308 351.661L318.957 352.161L316.078 351.886L314.377 351.011L312.074 350.51L309.221 347.534L308.678 345.833L307.427 343.707L302.837 339.655L301.115 338.979L296.791 338.154L293.505 338.354L292.616 338.879L289.2 337.844L286.948 337.703L284.896 336.355L282.693 333.076L280.992 331.475L278.94 331.097L277.498 330.4L271.632 326.067L269.104 325.337L266.927 320.722L264.8 317.393L263.173 315.792L261.621 315.517L260.595 314.791L256.216 310.064L252.237 307.687L251.461 306.284L249.158 303.76L245.48 301.259L243.92 301.009L243.087 300.884L243.19 302.097L242.727 302.66L242.359 302.134L242.026 302.26L241.548 303.285L240.875 302.184L240.584 301.734L240.272 301.534L239.573 301.081L236.195 300.221L233.745 301.359L232.116 301.282L229.388 299.233L225.934 299.008L224.758 297.53L223.031 296.779L220.606 294.33L218.652 291.554L214.645 287.949L212.795 287.089L211.569 285.523L208.316 284.197L205.886 281.696L204.787 281.043L200.44 280.798L195.703 274.52L193.703 273.539L192.074 273.231L189.804 273.567L189.521 273.169L187.644 266.966L185.317 262.908L183.264 261.213L180.859 257.035L178.162 253.658L177.183 253.358L176.039 252.233L175.359 252.032L174.706 252.883L174.162 252.758L172.979 249.831L169.928 245.879L168.724 245.191L164.923 244.704L162.117 245.179L161.795 244.043L159.64 244.876L156.018 243.053L153.884 242.652L150.755 242.878L148.228 242.152L145.675 242.452L143.651 244.303L140.522 244.228L138.793 244.729L138.08 244.354L136.726 239.526L135.617 237.775L135.014 236.824L133.763 235.574L132.711 233.097L129.843 230.321L128.109 227.77L124.055 224.343L122.278 223.367L120.023 223.54L117.643 222.782L114.515 223.717L109.888 222.117L107.285 221.636H98.4581L93.6582 221.766L92.0439 221.391L85.9901 222.489L77.2309 225.416L70.2486 227.785L68.5719 226.794L66.795 226.319L63.9921 222.99L62.0876 219.015L58.1835 212.862L56.6069 207.356L55.5332 205.883L54.5046 205.17L50.6981 202.534L50.2827 202.251L48.123 200.88L46.4463 200.355L43.841 200.055L40.8653 201.228L38.4879 200.692L38.08 199.777L37.7622 198.954L36.6109 198.429L32.7068 194.627L30.5546 191.075L29.2782 190.652L28.59 189.014L29.1531 187.498L29.003 186.748L27.6265 184.471L28.2972 182.395L28.1746 178.843L25.4492 171.664L22.8565 167.587L21.7453 165.811L21.2198 165.611L20.6442 166.137L19.2052 163.86Z" fill="#244E66"/>
<path d="M19.2052 163.86L19.1927 163.335L19 162.635L19.1676 162.284L19.1427 161.396L20.6192 160.609L21.8455 159.058L22.8966 160.108L23.4721 159.658L24.4732 158.895L25.9498 156.982L27.3012 153.475L26.5504 151.679L26.7506 150.853L28.6275 148.977L28.9029 146.751L30.6297 143.775L30.6046 141.949L29.4784 140.323L27.9018 139.612L27.5264 138.259L26.8758 137.571L27.1335 135.965L25.8747 134.97L25.7245 133.869L27.4013 130.555L31.906 121.563L33.0572 118.248L32.9571 117.205L32.6568 114.922L33.4826 113.233L35.3696 111.232L35.5348 109.531L35.3596 106.83L35.3096 105.779L34.5538 105.016L32.4065 104.916L32.867 103.403L34.5538 103.853L36.5609 103.703L37.6119 103.178L39.7142 100.076L41.5912 99.2006L42.9676 97.0745L44.5192 95.6237L46.1959 92.0218L47.097 90.9963L48.7486 90.1708L50.0725 90.1958L55.4332 91.2589L58.6089 90.3709L62.3154 88.645L63.6667 87.6444L65.5037 85.093L67.2204 83.8924L67.4682 83.3321L66.7425 81.7413L66.9427 79.7126L69.2451 78.537L70.5964 78.4345L73.5246 80.3905L75.2264 80.4405L76.5602 79.9653L79.2081 77.3139L80.3592 75.1001L79.8937 74.1371L80.4168 72.8616L81.6681 71.7109L82.0059 70.7228L81.2326 69.6097L80.4068 68.4291L77.4786 62.2308L77.3311 61.1802L78.1795 59.3542L79.0553 58.5037L80.4068 58.0036L81.2827 58.2036L81.7331 58.9291L80.8573 59.6544L80.8322 60.3272L81.8333 61.2052L86.7759 61.0051L87.6118 60.4023L88.215 60.6049L88.5503 63.8817L88.1899 67.1334L88.8406 67.7587L90.5925 68.0215L91.6436 70.5852L92.7447 71.5832L93.12 72.9365L92.7197 75.2627L93.2427 78.9148L97.1243 86.7189L99.4992 87.5069L100.48 88.5699L101.479 91.7466L102.157 92.2469L103.106 92.3219L103.609 93.1223L106.059 93.7477L106.784 95.5987L107.988 95.7362L109.062 94.8483L109.637 94.9109L110.263 95.4211L110.238 97.1495L110.638 98.2376L111.542 98.9505L115.694 101.202L118.321 101.452L118.624 101.077L120.549 100.947L125.704 99.6508L131.237 97.4997L139.418 91.9717L144.499 88.72L146.111 88.4398L148.03 87.3943L148.926 86.3188L150.38 83.3321L149.864 79.3399L147.102 72.6364L145.85 71.6109L145.925 71.1106L147.027 70.7103L147.978 69.8098L149.381 69.6598L149.855 67.5836L150.633 66.5806L152.757 65.3299L151.731 63.4064L151.706 62.3058L152.883 60.855L154.87 58.3787L156.789 57.2005L160.065 56.7654L161.992 57.6934L163.519 59.2042L164.567 59.4668L166.234 58.3037L166.997 58.6289L168.724 61.9681L169.95 62.556L172.1 62.631L175.757 61.6805L179.838 59.5043L181.615 58.2036L182.764 56.5752L183.315 53.151L184.418 53.2134L185.392 54.2516L186.443 54.5667L187.894 54.0464L189.371 54.2641L190.072 54.0013L190.922 52.4255L192.049 52.1504L194.494 50.1243L196.028 49.599L196.653 49.669L197.982 48.4984H198.666L199.682 50.4996L200.733 50.9472L201.691 51.3374L201.609 53.6387V53.8013L203.486 55.9024L204.194 56.7028L206.614 56.5277L207.267 56.903L209.041 60.4023L209.166 62.9812L210.265 65.9077L210.618 68.0589L209.825 71.3107L209.817 71.5358L209.667 73.737L210.418 76.1508L212.195 78.1894L217.6 81.5886L221.68 81.7663L223.932 82.8118L228.136 82.4416L231.968 81.1909L233.702 80.6908L236.933 78.5145L237.924 76.4534L239.949 77.489L242.551 78.2268L243.295 78.9398L243.377 80.9158L244.428 83.1295L243.978 86.2186L244.779 87.6444L244.003 89.9706L244.103 91.2463L245.229 92.4469L246.581 94.1229L249.681 98.0376L251.411 99.4508L254.687 100.974L256.616 101.327L261.073 105.279L264.65 106.129L265.676 107.33L269.677 109.656L273.586 110.382L275.098 110.429L275.161 110.482L276.349 111.157L279.087 111.472V111.982L277.888 112.558L278.214 113.556L278.437 113.608L282.168 114.534L284.445 116.01L285.839 116.172L292.616 115.159L296.508 114.559L300.913 112.983L303.44 112.808L307.319 111.832L310.022 110.507L319.657 104.801L323.639 101.877L324.838 100.801L326.442 100.114L328.066 100.176L330.969 98.6253L332.869 99.3507L334.745 99.4258L336.575 98.5003L338.877 98.2001L340.304 97.0895L341.58 97.1244L344.859 98.6629L346.185 100.001L349.513 101.527L351.19 102.327L355.495 102.225L358.498 103.428L360.775 103.328L363.828 102.515L364.607 101.877L365.455 99.5759L366.606 99.851L370.711 102.703L373.849 102.752L374.364 103.203L377.746 103.403L380.171 104.593L382.673 104.754L384.15 105.729L385.424 105.904L388.479 105.949L390.707 105.104L392.158 105.324L395.937 106.267L397.336 105.844L400.917 105.679L406.28 103.475L411.879 104.176L417.635 101.572L421.689 98.4727L424.492 96.7493L425.593 96.8869L427.645 98.5252L432.951 98.8504L434.602 98.4252H437.33L443.239 96.4991L449.761 91.8842L455.952 92.0218L459.378 89.3829L462.582 89.4204L464.086 88.7951L468.763 85.0681L472.077 83.5397L478.541 75.0001L485.08 67.3586L486.232 65.1323L486.832 64.6571L487.883 64.532L488.509 65.1824L492.826 66.8332L496.042 67.0334L498.219 66.448L506.378 64.1543L510.057 62.5934L513.683 63.0562L516.363 61.7556L521.794 57.2531L522.745 57.003L523.646 57.6934L524.839 59.9295L526.451 60.655L527.375 61.0802L528.251 63.0063L532.405 67.6838L532.868 68.2089L536.206 68.1841L538.386 68.159H540.138L541.69 68.7343L543.567 68.7468L547.623 68.0089L548.93 68.8844L550.807 71.5358L550.752 73.5118L551.525 74.0846L558.56 76.6384L562.379 74.5774L563.465 73.7119L566.941 70.8104L569.887 69.9975L573.015 67.9589L580.906 59.6544L583.959 53.9413L584.069 53.7012L584.134 53.6012L584.334 52.7256L584.685 51.0498L584.737 50.9197L585.31 49.399L586.562 46.1347L586.211 42.2676L586.572 40.144L585.911 38.1928L583.651 37.3425L584.277 36.2669H586.572L589.565 43.2957L589.117 47.0627L588.839 49.2489L588.739 50.1243L588.414 50.7121L588.031 51.4L588.864 51.8502L590.794 52.9258L594.602 53.5511L597.198 53.8013L598.602 53.5511L605.206 51.3374L608.91 50.8496L611.495 49.8742L623.225 44.2961L628.333 41.8449L632.244 39.0934L638.018 34.5909L642.463 30.4638L645.548 28.6253L647.625 28L649.502 28.1626L652.13 29.6583L656.835 33.0027L662.378 35.9668L664.118 36.3669L666.237 36.2168L670.552 36.9922L671 37.38L670.825 38.2429L669.496 39.3435L661.067 41.92L657.261 44.6213L655.033 48.1107L653.782 52.4255L653.256 53.7012L651.63 57.6534L651.742 58.4788L652.631 58.7414L653.985 57.0531L653.607 56.1025L653.807 55.6773L654.858 55.9775L655.459 56.8028L655.209 58.3187L654.107 60.8051L651.905 63.8441L649.605 67.0734L648.719 68.2841L645.899 74.0846L642.463 81.6162L640.846 86.3937L638.666 90.521L634.912 96.2991L629.932 100.776L628.756 104.979L626.904 106.955L626.178 108.531L623.125 111.882L617.494 119.336L616.445 120.512L615.091 123.289L611.212 128.391L609.786 130.467L608.885 133.319L606.207 135.895L604.881 138.522L600.379 143.224L599.553 147.301L599.775 148.427L599.918 149.303L599.175 150.803L598.459 151.291L598.199 151.479L596.947 151.256L594.602 154.706L594.32 155.181L594.392 156.056L595.07 156.807L592.145 159.683L591.041 161.359L590.691 161.334L590.794 161.832L585.423 169.889L581.006 179.694L581.031 179.869L581.106 180.419L581.231 181.47L581.669 181.795L582.007 182.02L582.505 184.321L584.134 186.845L583.809 188.048L580.731 193.476L579.579 198.254L579.504 201.881L579.166 202.731L575.475 207.571L574.849 210.686L574.474 212.539L574.324 217.259L574.997 221.891L574.526 223.615L573.248 225.181L572.697 227.394L570.92 228.595L568.418 232.422L567.489 232.722L564.881 235.394L563.365 235.749L562.762 236.337L563.11 237.225L562.939 237.875L562.687 238.213L560.294 241.647L559.043 243.418L558.56 244.103L557.131 246.154L556.83 247.78L556.78 248.055V248.255V251.652V251.732L556.805 252.683V253.208L556.853 254.309L557.531 265.067L557.504 268.564L557.031 269.967L557.156 275.698L557.999 280.835L557.756 288.024L558.417 291.504L559.934 294.63L563.713 295.056L567.266 295.946L570.67 300.308L571.398 300.384L571.894 300.428L572.65 298.933L575.6 300.428L576.351 301.371L576.226 301.859L577.677 301.934L578.954 300.531L579.054 299.158L580.315 299.28L581.556 300.456L582.582 303.335L584.559 305.886L587.362 308.313L589.164 311.579L590.428 313.015L589.465 314.891L589.177 315.464L587.488 315.742L586.186 314.081L584.985 313.588L584.51 314.016L584.407 318.918L583.781 320.131L583.108 320.097L582.682 319.169L583.286 316.892L583.258 314.891L583.025 314.391L582.715 313.741L581.832 312.963L580.756 312.715L577.955 314.366L577.452 315.464L577.955 317.443L577.677 318.356L575.9 321.245L576.226 321.482L577.052 326.693L577.903 328.424L579.732 330.445L579.106 331.387L580.605 335.402L581.756 337.015L583.386 337.218L584.309 336.903L584.86 336.1L584.797 334.777L585.285 334.402L587.095 336.228L587.24 336.49L587.72 337.641L587.262 338.204L585.085 337.804L584.069 338.104L583.443 340.43L584.059 342.609L584.935 344.057L587.095 345.583L587.866 347.159L589.765 347.484L591.041 348.579L592.818 348.807L594.77 347.849L597.298 348.459L598.424 348.709L598.982 349.66L599.475 353.937L599.525 356.263V356.339L598.301 359.515L599.075 360.688L598.624 362.754L598.274 362.989L597.521 361.566L595.538 360.766L595.018 360.966L594.287 362.962L595.173 365.463L596.524 367.795L597.298 368.045L600.233 366.394L600.649 366.544L602.881 367.394L604.298 371.509L606.735 375.224L606.305 376.299L602.551 375.786H602.503L600.852 374.198L599.25 374.173L598.356 374.973L597.073 376.197L596.372 376.299L595.273 375.496L593.977 375.874L592.725 376.719L592.202 377.75L592.771 381.777L591.767 383.153L591.289 384.979L585.989 385.454L583.443 387.655L582.708 387.83L581.231 387.378L580.68 389.481L578.879 389.851L577.452 391.385L574.627 396.885L570.545 399.487L566.966 408.542L566.263 411.14L566.238 411.893L563.062 415.37L561.51 418.072L560.785 421.473L561.335 425.376L561.127 427.527L560.059 430.101L558.73 431.019L558.908 434.13L558.282 435.256V436.256V436.544L559.408 439.133L559.771 442.037L561.21 445.011L563.32 446.687L562.739 447.537L563.76 450.536L563.11 454.941L563.487 455.992L565.968 459.744L566.916 461.993L566.991 463.171L565.665 466.398L565.299 467.273L564.864 467.248L564.616 465.209L563.365 464.919L561.648 465.497L561.127 465.972L560.584 467.913L559.133 468.173L557.456 470.212L556.28 470.925L555.354 471L550.699 467.273L549.075 463.571L547.363 461.32L544.893 458.693L544.392 458.431L543.266 457.805L539.022 457.117L538.396 457.49L538.286 457.543L536.334 460.307L535.333 460.77L532.405 460.514L531.096 460.394L528.724 459.784L527.425 458.894L524.529 455.192L522.319 453.316L517.539 450.864L512.009 449.939L510.084 450.289L508.855 450.914L507.003 453.038L504.801 453.19L503.567 454.191L502.474 454.441L500.822 454.191L499.943 454.579L497.618 456.865L496.267 457.443L495.123 457.18L493.817 455.967L492.488 455.442L489.933 455.266L489.282 454.441L487.608 452.385L486.832 452.24L485.206 453.816L483.807 452.89L482.528 453.293L480.418 453.113L478.276 453.941L475.673 452.84L475.205 452.668L472.968 448.188L471.266 446.212L464.434 441.309L460.232 440.033L458.88 439.233L455.7 437.682L448.302 435.729L447.519 435.706L446.322 436.506L443.487 435.581L439.833 434.655L436.752 434.305L434.628 432.692L432.926 429.002L431.474 427.474L429.845 426.676L429.497 421.674L427.845 415.695L426.404 411.766L425.968 410.542L425.042 408.767L423.418 407.216L422.014 404.887L420.212 400.062L419.039 399.024L418.373 396.132L415.87 391.52L409.354 382.242L405.074 376.174L394.736 365.691L389.305 362.592L386.452 360.391L382.998 359.835L382.573 358.965L382.295 358.377L379.47 356.709L378.669 356.238L371.869 353.662L368.033 351.733L365.33 351.586L360.525 350.31L357.672 349.585L351.065 348.474L344.934 349.26L339.528 348.509L330.821 348.634L329.14 349.185L327.115 351.498L326.539 351.961L326.489 352.011L326.464 352.024L323.236 351.636L322.488 351.561L320.308 351.661L318.957 352.161L316.078 351.886L314.377 351.011L312.074 350.51L309.221 347.534L308.678 345.833L307.427 343.707L302.837 339.655L301.115 338.979L296.791 338.154L293.505 338.354L292.616 338.879L289.2 337.844L286.948 337.703L284.896 336.355L282.693 333.076L280.992 331.475L278.94 331.097L277.498 330.4L271.632 326.067L269.104 325.337L266.927 320.722L264.8 317.393L263.173 315.792L261.621 315.517L260.595 314.791L256.216 310.064L252.237 307.687L251.461 306.284L249.158 303.76L245.48 301.259L243.92 301.009L243.087 300.884L243.19 302.097L242.727 302.66L242.359 302.134L242.026 302.26L241.548 303.285L240.875 302.184L240.584 301.734L240.272 301.534L239.573 301.081L236.195 300.221L233.745 301.359L232.116 301.282L229.388 299.233L225.934 299.008L224.758 297.53L223.031 296.779L220.606 294.33L218.652 291.554L214.645 287.949L212.795 287.089L211.569 285.523L208.316 284.197L205.886 281.696L204.787 281.043L200.44 280.798L195.703 274.52L193.703 273.539L192.074 273.231L189.804 273.567L189.521 273.169L187.644 266.966L185.317 262.908L183.264 261.213L180.859 257.035L178.162 253.658L177.183 253.358L176.039 252.233L175.359 252.032L174.706 252.883L174.162 252.758L172.979 249.831L169.928 245.879L168.724 245.191L164.923 244.704L162.117 245.179L161.795 244.043L159.64 244.876L156.018 243.053L153.884 242.652L150.755 242.878L148.228 242.152L145.675 242.452L143.651 244.303L140.522 244.228L138.793 244.729L138.08 244.354L136.726 239.526L135.617 237.775L135.014 236.824L133.763 235.574L132.711 233.097L129.843 230.321L128.109 227.77L124.055 224.343L122.278 223.367L120.023 223.54L117.643 222.782L114.515 223.717L109.888 222.117L107.285 221.636H98.4581L93.6582 221.766L92.0439 221.391L85.9901 222.489L77.2309 225.416L70.2486 227.785L68.5719 226.794L66.795 226.319L63.9921 222.99L62.0876 219.015L58.1835 212.862L56.6069 207.356L55.5332 205.883L54.5046 205.17L50.6981 202.534L50.2827 202.251L48.123 200.88L46.4463 200.355L43.841 200.055L40.8653 201.228L38.4879 200.692L38.08 199.777L37.7622 198.954L36.6109 198.429L32.7068 194.627L30.5546 191.075L29.2782 190.652L28.59 189.014L29.1531 187.498L29.003 186.748L27.6265 184.471L28.2972 182.395L28.1746 178.843L25.4492 171.664L22.8565 167.587L21.7453 165.811L21.2198 165.611L20.6442 166.137L19.2052 163.86Z" stroke="#95CCED" stroke-width="2" mask="url(#path-1-outside-1_11_2)"/>
<circle cx="556.5" cy="242.5" r="4.5" fill="white"/>
<path opacity="0.8" d="M569.84 254.29C570.392 254.29 570.86 254.242 571.244 254.146C571.628 254.05 571.958 253.918 572.234 253.75L572.738 255.55C572.45 255.718 572.042 255.868 571.514 256C570.986 256.132 570.344 256.198 569.588 256.198C568.736 256.198 567.95 256.066 567.23 255.802C566.51 255.526 565.886 255.136 565.358 254.632C564.842 254.116 564.44 253.498 564.152 252.778C563.864 252.046 563.72 251.224 563.72 250.312C563.72 249.424 563.858 248.62 564.134 247.9C564.422 247.18 564.818 246.568 565.322 246.064C565.838 245.548 566.462 245.152 567.194 244.876C567.926 244.6 568.742 244.462 569.642 244.462C570.41 244.462 571.04 244.534 571.532 244.678C572.036 244.822 572.444 244.978 572.756 245.146L572.198 246.964C571.886 246.796 571.538 246.658 571.154 246.55C570.782 246.43 570.362 246.37 569.894 246.37C569.402 246.37 568.94 246.442 568.508 246.586C568.076 246.73 567.698 246.964 567.374 247.288C567.05 247.6 566.792 248.008 566.6 248.512C566.42 249.004 566.33 249.604 566.33 250.312C566.33 250.996 566.42 251.59 566.6 252.094C566.78 252.586 567.026 252.994 567.338 253.318C567.662 253.642 568.034 253.888 568.454 254.056C568.886 254.212 569.348 254.29 569.84 254.29ZM579.296 251.572H582.176L581.654 250.06C581.486 249.592 581.33 249.124 581.186 248.656C581.042 248.176 580.904 247.696 580.772 247.216H580.736C580.604 247.672 580.46 248.14 580.304 248.62C580.148 249.088 579.986 249.568 579.818 250.06L579.296 251.572ZM579.512 244.66H582.068L586.262 256H583.652L582.77 253.39H578.738L577.856 256H575.282L579.512 244.66ZM596.219 244.66V246.604H593.015V256H590.549V246.604H587.417V244.66H596.219ZM601.423 251.572H604.303L603.781 250.06C603.613 249.592 603.457 249.124 603.313 248.656C603.169 248.176 603.031 247.696 602.899 247.216H602.863C602.731 247.672 602.587 248.14 602.431 248.62C602.275 249.088 602.113 249.568 601.945 250.06L601.423 251.572ZM601.639 244.66H604.195L608.389 256H605.779L604.897 253.39H600.865L599.983 256H597.409L601.639 244.66ZM611.626 244.66H613.876L617.782 250.636C618.046 251.044 618.286 251.446 618.502 251.842C618.73 252.226 618.892 252.526 618.988 252.742H619.024C618.952 251.962 618.916 251.188 618.916 250.42C618.916 249.64 618.916 248.854 618.916 248.062V244.66H621.202V256H618.952L615.316 250.492C615.16 250.252 615.004 250.006 614.848 249.754C614.704 249.49 614.566 249.238 614.434 248.998C614.302 248.758 614.182 248.542 614.074 248.35C613.978 248.146 613.906 247.978 613.858 247.846H613.822C613.882 248.674 613.912 249.472 613.912 250.24C613.924 250.996 613.93 251.77 613.93 252.562V256H611.626V244.66ZM627.95 244.66V256H625.484V244.66H627.95ZM635.247 251.572H638.127L637.605 250.06C637.437 249.592 637.281 249.124 637.137 248.656C636.993 248.176 636.855 247.696 636.723 247.216H636.687C636.555 247.672 636.411 248.14 636.255 248.62C636.099 249.088 635.937 249.568 635.769 250.06L635.247 251.572ZM635.463 244.66H638.019L642.213 256H639.603L638.721 253.39H634.689L633.807 256H631.233L635.463 244.66Z" fill="white"/>
<circle cx="597.5" cy="148.5" r="4.5" fill="white"/>
<path d="M560.982 128.66V130.604H557.778V140H555.312V130.604H552.18V128.66H560.982ZM566.186 135.572H569.066L568.544 134.06C568.376 133.592 568.22 133.124 568.076 132.656C567.932 132.176 567.794 131.696 567.662 131.216H567.626C567.494 131.672 567.35 132.14 567.194 132.62C567.038 133.088 566.876 133.568 566.708 134.06L566.186 135.572ZM566.402 128.66H568.958L573.152 140H570.542L569.66 137.39H565.628L564.746 140H562.172L566.402 128.66ZM581.255 128.462C582.059 128.462 582.803 128.594 583.487 128.858C584.171 129.122 584.759 129.506 585.251 130.01C585.743 130.502 586.127 131.114 586.403 131.846C586.691 132.578 586.835 133.412 586.835 134.348C586.835 135.26 586.691 136.076 586.403 136.796C586.115 137.516 585.719 138.128 585.215 138.632C584.711 139.136 584.111 139.526 583.415 139.802C582.731 140.066 581.987 140.198 581.183 140.198C580.379 140.198 579.635 140.072 578.951 139.82C578.267 139.556 577.679 139.178 577.187 138.686C576.695 138.182 576.305 137.57 576.017 136.85C575.741 136.118 575.603 135.284 575.603 134.348C575.603 133.436 575.747 132.62 576.035 131.9C576.323 131.168 576.719 130.55 577.223 130.046C577.727 129.53 578.321 129.14 579.005 128.876C579.701 128.6 580.451 128.462 581.255 128.462ZM578.213 134.348C578.213 135.02 578.291 135.608 578.447 136.112C578.615 136.604 578.837 137.018 579.113 137.354C579.389 137.678 579.707 137.924 580.067 138.092C580.439 138.248 580.835 138.326 581.255 138.326C581.663 138.326 582.047 138.248 582.407 138.092C582.779 137.924 583.097 137.678 583.361 137.354C583.625 137.018 583.835 136.604 583.991 136.112C584.147 135.608 584.225 135.02 584.225 134.348C584.225 133.652 584.141 133.052 583.973 132.548C583.817 132.044 583.601 131.63 583.325 131.306C583.049 130.97 582.725 130.724 582.353 130.568C581.993 130.412 581.603 130.334 581.183 130.334C580.763 130.334 580.373 130.418 580.013 130.586C579.653 130.754 579.341 131.006 579.077 131.342C578.813 131.666 578.603 132.08 578.447 132.584C578.291 133.088 578.213 133.676 578.213 134.348ZM590.599 128.66H594.901C595.537 128.66 596.095 128.756 596.575 128.948C597.067 129.128 597.475 129.38 597.799 129.704C598.123 130.016 598.363 130.388 598.519 130.82C598.687 131.24 598.771 131.696 598.771 132.188C598.771 132.644 598.699 133.052 598.555 133.412C598.423 133.76 598.249 134.066 598.033 134.33C597.829 134.582 597.595 134.798 597.331 134.978C597.079 135.146 596.833 135.284 596.593 135.392L599.365 140H596.539L594.361 135.824H593.047V140H590.599V128.66ZM593.047 133.934H594.019C594.667 133.934 595.195 133.802 595.603 133.538C596.023 133.274 596.233 132.836 596.233 132.224C596.233 131.684 596.065 131.27 595.729 130.982C595.405 130.682 594.925 130.532 594.289 130.532H593.047V133.934ZM603.402 128.66H606.516L608.136 133.826C608.208 134.054 608.28 134.3 608.352 134.564C608.436 134.828 608.514 135.092 608.586 135.356C608.658 135.62 608.724 135.878 608.784 136.13C608.844 136.382 608.892 136.616 608.928 136.832H609C609.036 136.64 609.084 136.418 609.144 136.166C609.204 135.902 609.27 135.632 609.342 135.356C609.414 135.08 609.486 134.81 609.558 134.546C609.63 134.282 609.696 134.042 609.756 133.826L611.322 128.66H614.436L615.282 140H612.96C612.888 138.752 612.816 137.504 612.744 136.256C612.672 135.008 612.624 133.748 612.6 132.476L612.582 131H612.528C612.372 131.66 612.198 132.35 612.006 133.07C611.826 133.79 611.652 134.42 611.484 134.96L609.882 140H607.974L606.336 134.942C606.132 134.294 605.94 133.61 605.76 132.89C605.58 132.17 605.436 131.54 605.328 131H605.274C605.274 131.432 605.268 131.888 605.256 132.368C605.244 132.836 605.226 133.304 605.202 133.772C605.19 134.24 605.172 134.702 605.148 135.158C605.136 135.602 605.118 136.01 605.094 136.382L604.878 140H602.592L603.402 128.66ZM621.942 128.66V140H619.476V128.66H621.942ZM626.251 128.66H628.501L632.407 134.636C632.671 135.044 632.911 135.446 633.127 135.842C633.355 136.226 633.517 136.526 633.613 136.742H633.649C633.577 135.962 633.541 135.188 633.541 134.42C633.541 133.64 633.541 132.854 633.541 132.062V128.66H635.827V140H633.577L629.941 134.492C629.785 134.252 629.629 134.006 629.473 133.754C629.329 133.49 629.191 133.238 629.059 132.998C628.927 132.758 628.807 132.542 628.699 132.35C628.603 132.146 628.531 131.978 628.483 131.846H628.447C628.507 132.674 628.537 133.472 628.537 134.24C628.549 134.996 628.555 135.77 628.555 136.562V140H626.251V128.66ZM643.098 135.572H645.978L645.456 134.06C645.288 133.592 645.132 133.124 644.988 132.656C644.844 132.176 644.706 131.696 644.574 131.216H644.538C644.406 131.672 644.262 132.14 644.106 132.62C643.95 133.088 643.788 133.568 643.62 134.06L643.098 135.572ZM643.314 128.66H645.87L650.064 140H647.454L646.572 137.39H642.54L641.658 140H639.084L643.314 128.66Z" fill="white"/>
<circle cx="339.5" cy="98.5" r="4.5" fill="white"/>
<path opacity="0.8" d="M350.84 92.29C351.392 92.29 351.86 92.242 352.244 92.146C352.628 92.05 352.958 91.918 353.234 91.75L353.738 93.55C353.45 93.718 353.042 93.868 352.514 94C351.986 94.132 351.344 94.198 350.588 94.198C349.736 94.198 348.95 94.066 348.23 93.802C347.51 93.526 346.886 93.136 346.358 92.632C345.842 92.116 345.44 91.498 345.152 90.778C344.864 90.046 344.72 89.224 344.72 88.312C344.72 87.424 344.858 86.62 345.134 85.9C345.422 85.18 345.818 84.568 346.322 84.064C346.838 83.548 347.462 83.152 348.194 82.876C348.926 82.6 349.742 82.462 350.642 82.462C351.41 82.462 352.04 82.534 352.532 82.678C353.036 82.822 353.444 82.978 353.756 83.146L353.198 84.964C352.886 84.796 352.538 84.658 352.154 84.55C351.782 84.43 351.362 84.37 350.894 84.37C350.402 84.37 349.94 84.442 349.508 84.586C349.076 84.73 348.698 84.964 348.374 85.288C348.05 85.6 347.792 86.008 347.6 86.512C347.42 87.004 347.33 87.604 347.33 88.312C347.33 88.996 347.42 89.59 347.6 90.094C347.78 90.586 348.026 90.994 348.338 91.318C348.662 91.642 349.034 91.888 349.454 92.056C349.886 92.212 350.348 92.29 350.84 92.29ZM357.308 82.66H364.688V84.568H359.774V87.16H364.22V89.05H359.774V92.092H364.742V94H357.308V82.66ZM375.606 82.66V84.568H370.872V87.574H375.21V89.464H370.872V94H368.406V82.66H375.606ZM381.421 89.572H384.301L383.779 88.06C383.611 87.592 383.455 87.124 383.311 86.656C383.167 86.176 383.029 85.696 382.897 85.216H382.861C382.729 85.672 382.585 86.14 382.429 86.62C382.273 87.088 382.111 87.568 381.943 88.06L381.421 89.572ZM381.637 82.66H384.193L388.387 94H385.777L384.895 91.39H380.863L379.981 94H377.407L381.637 82.66ZM391.624 82.66H394.09V92.056H398.662V94H391.624V82.66ZM401.456 82.66H403.922V89.446C403.922 90.382 404.108 91.096 404.48 91.588C404.864 92.068 405.452 92.308 406.244 92.308C407.024 92.308 407.588 92.062 407.936 91.57C408.284 91.078 408.458 90.442 408.458 89.662V82.66H410.924V89.482C410.924 91.066 410.528 92.248 409.736 93.028C408.956 93.808 407.792 94.198 406.244 94.198C404.756 94.198 403.586 93.808 402.734 93.028C401.882 92.248 401.456 91.036 401.456 89.392V82.66ZM404.084 79.258H406.676L408.116 81.49H406.154L404.084 79.258Z" fill="white"/>
<circle cx="208.5" cy="78.5" r="4.5" fill="white"/>
<path opacity="0.8" d="M217.242 61.66H221.22C221.88 61.66 222.474 61.738 223.002 61.894C223.542 62.05 223.998 62.278 224.37 62.578C224.754 62.878 225.048 63.244 225.252 63.676C225.456 64.096 225.558 64.582 225.558 65.134C225.558 65.782 225.438 66.34 225.198 66.808C224.958 67.276 224.628 67.666 224.208 67.978C223.8 68.278 223.32 68.506 222.768 68.662C222.216 68.806 221.628 68.878 221.004 68.878H219.708V73H217.242V61.66ZM219.708 66.988H220.716C221.028 66.988 221.322 66.964 221.598 66.916C221.886 66.856 222.132 66.76 222.336 66.628C222.552 66.484 222.72 66.304 222.84 66.088C222.96 65.86 223.02 65.578 223.02 65.242C223.02 64.654 222.822 64.222 222.426 63.946C222.03 63.67 221.526 63.532 220.914 63.532H219.708V66.988ZM231.03 68.572H233.91L233.388 67.06C233.22 66.592 233.064 66.124 232.92 65.656C232.776 65.176 232.638 64.696 232.506 64.216H232.47C232.338 64.672 232.194 65.14 232.038 65.62C231.882 66.088 231.72 66.568 231.552 67.06L231.03 68.572ZM231.246 61.66H233.802L237.996 73H235.386L234.504 70.39H230.472L229.59 73H227.016L231.246 61.66ZM241.233 61.66H243.699V71.056H248.271V73H241.233V61.66ZM251.453 61.66H258.833V63.568H253.919V66.16H258.365V68.05H253.919V71.092H258.887V73H251.453V61.66ZM262.551 61.66H266.853C267.489 61.66 268.047 61.756 268.527 61.948C269.019 62.128 269.427 62.38 269.751 62.704C270.075 63.016 270.315 63.388 270.471 63.82C270.639 64.24 270.723 64.696 270.723 65.188C270.723 65.644 270.651 66.052 270.507 66.412C270.375 66.76 270.201 67.066 269.985 67.33C269.781 67.582 269.547 67.798 269.283 67.978C269.031 68.146 268.785 68.284 268.545 68.392L271.317 73H268.491L266.313 68.824H264.999V73H262.551V61.66ZM264.999 66.934H265.971C266.619 66.934 267.147 66.802 267.555 66.538C267.975 66.274 268.185 65.836 268.185 65.224C268.185 64.684 268.017 64.27 267.681 63.982C267.357 63.682 266.877 63.532 266.241 63.532H264.999V66.934ZM275.355 61.66H278.469L280.089 66.826C280.161 67.054 280.233 67.3 280.305 67.564C280.389 67.828 280.467 68.092 280.539 68.356C280.611 68.62 280.677 68.878 280.737 69.13C280.797 69.382 280.845 69.616 280.881 69.832H280.953C280.989 69.64 281.037 69.418 281.097 69.166C281.157 68.902 281.223 68.632 281.295 68.356C281.367 68.08 281.439 67.81 281.511 67.546C281.583 67.282 281.649 67.042 281.709 66.826L283.275 61.66H286.389L287.235 73H284.913C284.841 71.752 284.769 70.504 284.697 69.256C284.625 68.008 284.577 66.748 284.553 65.476L284.535 64H284.481C284.325 64.66 284.151 65.35 283.959 66.07C283.779 66.79 283.605 67.42 283.437 67.96L281.835 73H279.927L278.289 67.942C278.085 67.294 277.893 66.61 277.713 65.89C277.533 65.17 277.389 64.54 277.281 64H277.227C277.227 64.432 277.221 64.888 277.209 65.368C277.197 65.836 277.179 66.304 277.155 66.772C277.143 67.24 277.125 67.702 277.101 68.158C277.089 68.602 277.071 69.01 277.047 69.382L276.831 73H274.545L275.355 61.66ZM296.559 61.462C297.363 61.462 298.107 61.594 298.791 61.858C299.475 62.122 300.063 62.506 300.555 63.01C301.047 63.502 301.431 64.114 301.707 64.846C301.995 65.578 302.139 66.412 302.139 67.348C302.139 68.26 301.995 69.076 301.707 69.796C301.419 70.516 301.023 71.128 300.519 71.632C300.015 72.136 299.415 72.526 298.719 72.802C298.035 73.066 297.291 73.198 296.487 73.198C295.683 73.198 294.939 73.072 294.255 72.82C293.571 72.556 292.983 72.178 292.491 71.686C291.999 71.182 291.609 70.57 291.321 69.85C291.045 69.118 290.907 68.284 290.907 67.348C290.907 66.436 291.051 65.62 291.339 64.9C291.627 64.168 292.023 63.55 292.527 63.046C293.031 62.53 293.625 62.14 294.309 61.876C295.005 61.6 295.755 61.462 296.559 61.462ZM293.517 67.348C293.517 68.02 293.595 68.608 293.751 69.112C293.919 69.604 294.141 70.018 294.417 70.354C294.693 70.678 295.011 70.924 295.371 71.092C295.743 71.248 296.139 71.326 296.559 71.326C296.967 71.326 297.351 71.248 297.711 71.092C298.083 70.924 298.401 70.678 298.665 70.354C298.929 70.018 299.139 69.604 299.295 69.112C299.451 68.608 299.529 68.02 299.529 67.348C299.529 66.652 299.445 66.052 299.277 65.548C299.121 65.044 298.905 64.63 298.629 64.306C298.353 63.97 298.029 63.724 297.657 63.568C297.297 63.412 296.907 63.334 296.487 63.334C296.067 63.334 295.677 63.418 295.317 63.586C294.957 63.754 294.645 64.006 294.381 64.342C294.117 64.666 293.907 65.08 293.751 65.584C293.595 66.088 293.517 66.676 293.517 67.348Z" fill="white"/>
<path d="M391.72 272.96C387.613 278.507 385.56 282.293 385.56 284.32C385.56 285.013 385.907 285.36 386.6 285.36C388.467 285.36 392.013 283.867 397.24 280.88C402.467 277.893 405.267 276.4 405.64 276.4C406.387 276.4 406.76 276.72 406.76 277.36V277.52C406.707 277.84 405.213 279.013 402.28 281.04C399.347 283.067 395.693 285.12 391.32 287.2C386.947 289.28 383.293 290.32 380.36 290.32C375.72 290.32 373.4 287.627 373.4 282.24C373.4 277.387 375.987 271.787 381.16 265.44C386.387 259.04 392.493 253.6 399.48 249.12C406.467 244.64 412.413 242.4 417.32 242.4C419.453 242.4 421 243.013 421.96 244.24C422.92 245.467 423.4 246.613 423.4 247.68C423.4 249.813 422.067 252.293 419.4 255.12C416.787 257.947 413.693 260.587 410.12 263.04C406.547 265.44 403.027 267.573 399.56 269.44C396.147 271.253 393.533 272.427 391.72 272.96ZM417 248.8C416.147 248.8 414.093 250.187 410.84 252.96C407.64 255.733 404.653 258.533 401.88 261.36L397.72 265.52C397.293 265.947 397.08 266.293 397.08 266.56C397.08 266.773 397.32 266.88 397.8 266.88C399.933 266.88 403.72 264.347 409.16 259.28C414.6 254.213 417.32 250.827 417.32 249.12C417.32 248.907 417.213 248.8 417 248.8Z" fill="white"/>
<path d="M397.88 288C397.88 289.173 398.28 290.133 399.08 290.88C399.88 291.68 400.92 292.08 402.2 292.08C403.48 292.08 405.667 290.533 408.76 287.44C411.853 284.347 414.6 281.12 417 277.76C419.4 274.4 420.6 272.267 420.6 271.36C420.6 268.533 419.4 267.12 417 267.12C413.16 267.813 409 270.533 404.52 275.28C400.093 280.027 397.88 284.267 397.88 288ZM422.04 264.56C421.133 264.56 420.413 264.24 419.88 263.6C419.347 262.96 419.027 262.32 418.92 261.68L418.84 260.8C419.107 258.24 420.253 256.293 422.28 254.96C424.307 253.627 426.067 252.96 427.56 252.96C429.747 252.96 430.84 254.053 430.84 256.24C430.84 257.627 430.013 259.307 428.36 261.28C426.707 263.2 424.6 264.293 422.04 264.56ZM439.942 286.8C439.942 287.067 440.129 287.253 440.502 287.36C440.875 287.36 442.155 286.613 444.342 285.12C446.582 283.573 447.835 282.72 448.102 282.56C448.422 282.4 448.715 282.32 448.982 282.32C449.729 282.32 450.102 282.693 450.102 283.44C450.102 284.133 448.209 285.707 444.422 288.16C440.689 290.613 438.049 291.84 436.502 291.84C435.862 291.84 435.169 291.573 434.422 291.04C433.729 290.507 433.382 289.893 433.382 289.2C433.382 288.453 433.569 287.653 433.942 286.8C434.315 285.947 434.502 285.387 434.502 285.12C434.502 284.8 434.422 284.64 434.262 284.64C434.102 284.64 433.942 284.693 433.782 284.8C428.609 288.693 424.795 290.64 422.342 290.64C420.955 290.64 419.862 290.133 419.062 289.12C418.262 288.107 417.782 287.093 417.622 286.08L417.462 284.56C417.462 282.8 418.129 280.773 419.462 278.48C420.849 276.133 422.635 273.92 424.822 271.84C427.062 269.707 429.782 267.92 432.982 266.48C436.235 265.04 439.542 264.32 442.902 264.32C444.715 264.32 446.395 264.8 447.942 265.76C449.542 266.72 450.342 267.84 450.342 269.12C450.342 270.4 449.089 271.173 446.582 271.44C444.715 271.867 441.622 273.413 437.302 276.08C433.035 278.693 430.902 280.693 430.902 282.08C430.902 282.667 431.195 282.96 431.782 282.96C432.849 282.96 435.355 281.44 439.302 278.4C443.302 275.36 445.702 273.84 446.502 273.84C447.302 273.84 447.702 274.32 447.702 275.28C447.702 275.973 447.435 276.64 446.902 277.28C446.422 277.867 446.075 278.293 445.862 278.56C445.435 279.093 444.342 280.293 442.582 282.16C440.822 283.973 439.942 285.52 439.942 286.8Z" fill="white"/>
<path d="M351.88 288C351.88 289.173 352.28 290.133 353.08 290.88C353.88 291.68 354.92 292.08 356.2 292.08C357.48 292.08 359.667 290.533 362.76 287.44C365.853 284.347 368.6 281.12 371 277.76C373.4 274.4 374.6 272.267 374.6 271.36C374.6 268.533 373.4 267.12 371 267.12C367.16 267.813 363 270.533 358.52 275.28C354.093 280.027 351.88 284.267 351.88 288ZM376.04 264.56C375.133 264.56 374.413 264.24 373.88 263.6C373.347 262.96 373.027 262.32 372.92 261.68L372.84 260.8C373.107 258.24 374.253 256.293 376.28 254.96C378.307 253.627 380.067 252.96 381.56 252.96C383.747 252.96 384.84 254.053 384.84 256.24C384.84 257.627 384.013 259.307 382.36 261.28C380.707 263.2 378.6 264.293 376.04 264.56Z" fill="white"/>
<path d="M358.32 277.36C358.267 277.893 356.533 279.307 353.12 281.6C349.707 283.84 345.76 286.027 341.28 288.16C336.8 290.293 333.573 291.36 331.6 291.36C329.68 291.36 328.027 290.773 326.64 289.6C325.253 288.373 324.56 286.987 324.56 285.44C324.56 282.24 325.973 278.96 328.8 275.6C331.68 272.187 334.987 269.44 338.72 267.36C342.507 265.227 345.707 264.16 348.32 264.16C350.987 264.16 352.987 264.507 354.32 265.2C355.653 265.84 356.32 267.067 356.32 268.88C356.32 270.693 355.147 272.8 352.8 275.2C350.507 277.547 348.533 278.72 346.88 278.72C345.813 278.72 345.28 278.4 345.28 277.76C345.28 277.333 345.547 276.96 346.08 276.64C346.667 276.32 347.6 275.573 348.88 274.4C350.16 273.227 350.8 272.427 350.8 272C350.8 271.84 350.64 271.76 350.32 271.76C348.453 271.76 345.813 273.467 342.4 276.88C338.987 280.293 337.28 282.853 337.28 284.56C337.28 285.413 337.733 285.84 338.64 285.84C339.6 285.84 341.12 285.307 343.2 284.24C345.28 283.12 347.84 281.627 350.88 279.76C353.92 277.893 355.653 276.853 356.08 276.64C356.56 276.373 356.933 276.24 357.2 276.24C357.947 276.24 358.32 276.613 358.32 277.36Z" fill="white"/>
<path d="M289.48 264L272.6 263.68C269.347 263.627 266.653 262.747 264.52 261.04C262.387 259.333 261.32 257.173 261.32 254.56C261.32 250.987 263.933 247.44 269.16 243.92C274.44 240.347 280.68 237.547 287.88 235.52C295.133 233.44 301.373 232.4 306.6 232.4C316.947 232.4 322.12 235.04 322.12 240.32C322.12 242.027 320.28 245.2 316.6 249.84C312.973 254.48 310.253 256.8 308.44 256.8C308.067 256.8 307.693 256.64 307.32 256.32C307 255.947 306.84 255.493 306.84 254.96C306.84 254.427 307.48 253.467 308.76 252.08C310.093 250.64 310.76 249.6 310.76 248.96C310.76 248.48 310.147 248.24 308.92 248.24C305.613 248.24 300.387 249.493 293.24 252C286.093 254.453 282.52 256.4 282.52 257.84C282.52 258.427 283.107 258.8 284.28 258.96C285.453 259.067 287.533 259.173 290.52 259.28C293.507 259.333 296.12 259.52 298.36 259.84C300.6 260.16 302.413 260.64 303.8 261.28C305.24 261.867 306.333 262.507 307.08 263.2C307.88 263.893 308.52 264.693 309 265.6C309.693 267.04 310.04 268.48 310.04 269.92C310.04 273.76 307.4 277.627 302.12 281.52C296.893 285.413 290.573 288.533 283.16 290.88C275.8 293.227 269.24 294.4 263.48 294.4C251.533 294.4 245.56 290.64 245.56 283.12C245.56 279.653 248.307 276.8 253.8 274.56C255.56 276.107 259.427 276.88 265.4 276.88C269.773 276.613 273.8 276 277.48 275.04C281.16 274.027 284.04 272.933 286.12 271.76C288.2 270.533 289.827 269.387 291 268.32C292.173 267.2 292.84 266.267 293 265.52C292.893 264.507 291.72 264 289.48 264ZM305.989 288C305.989 289.173 306.389 290.133 307.189 290.88C307.989 291.68 309.029 292.08 310.309 292.08C311.589 292.08 313.776 290.533 316.869 287.44C319.963 284.347 322.709 281.12 325.109 277.76C327.509 274.4 328.709 272.267 328.709 271.36C328.709 268.533 327.509 267.12 325.109 267.12C321.269 267.813 317.109 270.533 312.629 275.28C308.203 280.027 305.989 284.267 305.989 288ZM330.149 264.56C329.243 264.56 328.523 264.24 327.989 263.6C327.456 262.96 327.136 262.32 327.029 261.68L326.949 260.8C327.216 258.24 328.363 256.293 330.389 254.96C332.416 253.627 334.176 252.96 335.669 252.96C337.856 252.96 338.949 254.053 338.949 256.24C338.949 257.627 338.123 259.307 336.469 261.28C334.816 263.2 332.709 264.293 330.149 264.56Z" fill="white"/>
<path opacity="0.3" d="M208.5 78.5C208.5 78.5 201.5 86 230.5 86C242 86 254.5 119.5 293.5 119.5C319 119.5 241.5 185 276.5 185C343 185 310 235 356 235C402 235 381.5 216 413 215.5C461.5 217.5 495.5 256 537 256C552.5 256.5 550.5 249.5 557 243" stroke="white" stroke-width="3" stroke-dasharray="5 5"/>
<path d="M556.5 242.5C559.05 239.95 571 226.5 571 215C571 203.5 578 189.976 578 182.5C578 157 585 161.5 597 149.5" stroke="white" stroke-width="3" stroke-dasharray="5 5"/>
<path opacity="0.3" d="M338.5 99C338.5 99 320 120 298.5 120" stroke="white" stroke-width="3" stroke-dasharray="4 4"/>
</g>
<defs>
<clipPath id="clip0_11_2">
<rect width="687" height="494" fill="white"/>
</clipPath>
</defs>
</svg>
